<svg xmlns="http://www.w3.org/2000/svg" viewBox="0 0 300 114.76">
    <defs>
        <style>.cls-1{fill:#163459;}</style>
    </defs>
    <title>Element 2</title>
    <g id="Ebene_2" data-name="Ebene 2">
        <g id="LoginScreens">
            <g id="Ebene_2-2" data-name="Ebene 2">
                <g id="IOS_Blocks" data-name="IOS Blocks">
                    <path class="cls-1" d="M39.84,2.07H0V12.29H31.53a6.64,6.64,0,0,1,6.67,6.56V77.37a6.65,6.65,0,0,1-6.67,6.57h-12V21.82H0V94.58H39.84a17,17,0,0,0,17-16.76v-59A17,17,0,0,0,39.84,2.07Z"/>
                    <path class="cls-1" d="M74,28.66c-7.91,2-10.26,4.73-11.28,5.42V94.58H81.39V44.52c-.11-6.2,9.18-8.24,15.08-3.94V26.81c-11,0-17.54.74-22.44,1.85Z"/>
                    <path class="cls-1" d="M277.55,28.65c-7.92,2-10.25,4.73-11.28,5.42V94.58H284.9V44.5c-.1-6.2,9.19-8.24,15.1-3.94V26.79c-11,0-17.55.75-22.44,1.86Z"/>
                    <path class="cls-1" d="M130.48,26.79H100.29V40.56s10.64-3.58,18-3.58c9,0,9.49,4.52,9.41,6.54v8.09H109.55a15,15,0,0,0-15.07,15v13a15,15,0,0,0,15.07,15h36.8V42.49a15.76,15.76,0,0,0-15.87-15.7Zm-2.75,57.06h-8.67c-4,.07-6.94-2.82-7-7-.07-3.34-.07-3.77,0-7.64a6.9,6.9,0,0,1,6.85-6.94h8.87V83.85Z"/>
                    <path class="cls-1" d="M120.47,10.23a10.19,10.19,0,1,0-10.23,10.14h0A10.17,10.17,0,0,0,120.47,10.23Z"/>
                    <path class="cls-1" d="M145,10.23a10.18,10.18,0,1,0-10.22,10.14h0A10.15,10.15,0,0,0,145,10.25Z"/>
                    <path class="cls-1" d="M167.41,26.79a15.66,15.66,0,0,0-15.74,15.83v11.2a15.68,15.68,0,0,0,15.87,15.69H186.4a15.73,15.73,0,0,0,15.74-15.83V26.8ZM185.16,51.7c0,2.9-.8,7.9-8,7.91s-8-5-8-7.91V45c0-2.89.81-7.91,8-7.91s8,5,8,7.9Z"/>
                    <path class="cls-1" d="M187.84,72.09H166.72A15.61,15.61,0,0,0,151,87.57q0,.11,0,.22V98.93a15.86,15.86,0,0,0,15.88,15.83h21.1A15.77,15.77,0,0,0,203.72,99V87.78a15.78,15.78,0,0,0-15.87-15.7Zm-1.92,25c0,2.88-.87,7.89-8.45,7.89s-8.42-5-8.42-7.89V90.35c0-2.89.87-7.92,8.42-7.92s8.45,5,8.45,7.92Z"/>
                    <path class="cls-1" d="M260.47,69.3V42.48a15.75,15.75,0,0,0-15.9-15.69h-21a15.67,15.67,0,0,0-15.87,15.7v36.4c0,9.28,7.64,15.7,16.69,15.69h35.51V80.85s-12,3.4-23.36,3.39c-7.4,0-10.19-3-10.22-6.65V69.3ZM226,58.78V45c0-2.89,1-7.91,8-7.91s8,5,8,7.91V58.78Z"/>
                </g>
            </g>
        </g>
    </g>
</svg>
