<svg id="svg" version="1.1" xmlns="http://www.w3.org/2000/svg" xmlns:xlink="http://www.w3.org/1999/xlink" width="400" height="400" viewBox="0, 0, 400,400"><g id="svgg"><path id="path0" d="M174.871 41.217 C 169.150 41.639,162.593 42.495,158.600 43.341 C 155.389 44.021,147.091 44.654,136.400 45.035 C 132.177 45.186,128.313 45.522,127.400 45.818 C 123.965 46.933,117.943 47.970,112.400 48.402 C 103.230 49.115,98.490 49.881,97.094 50.875 C 96.066 51.608,94.719 51.848,88.241 52.455 C 78.325 53.384,78.346 53.380,74.600 55.211 C 72.605 56.187,70.271 56.963,68.400 57.273 C 66.750 57.546,65.258 57.997,65.085 58.276 C 64.912 58.554,63.949 59.347,62.945 60.038 C 61.902 60.756,60.880 61.868,60.560 62.635 C 60.251 63.373,59.483 64.359,58.852 64.825 C 57.920 65.514,57.664 66.062,57.489 67.737 C 57.371 68.871,56.598 71.870,55.772 74.400 L 54.270 79.000 54.135 120.800 L 54.000 162.600 54.985 169.400 C 56.127 177.279,56.797 184.889,56.808 190.122 C 56.818 194.964,57.441 199.160,58.334 200.400 C 59.423 201.912,59.595 202.580,60.237 207.790 C 60.981 213.828,61.353 215.217,62.586 216.547 C 63.649 217.694,64.048 218.938,64.848 223.594 C 65.272 226.064,65.587 226.814,66.648 227.874 C 67.592 228.819,68.057 229.777,68.399 231.480 C 69.426 236.601,69.688 237.458,70.657 238.869 C 71.212 239.677,72.024 241.747,72.462 243.469 C 73.007 245.612,73.613 246.979,74.384 247.800 C 75.730 249.234,76.555 250.802,77.173 253.100 C 77.425 254.035,77.779 254.800,77.961 254.800 C 78.688 254.800,80.294 256.869,80.751 258.395 C 81.018 259.285,82.014 260.890,82.965 261.961 C 83.999 263.125,84.801 264.481,84.962 265.336 C 85.115 266.154,85.659 267.103,86.234 267.555 C 86.786 267.989,87.853 269.609,88.605 271.154 C 89.356 272.699,90.413 274.252,90.952 274.605 C 91.491 274.959,92.224 275.977,92.581 276.869 C 93.227 278.485,95.257 281.064,98.939 284.953 C 100.006 286.079,101.203 287.630,101.599 288.400 C 101.996 289.170,102.886 290.217,103.579 290.726 C 104.271 291.235,105.133 292.270,105.493 293.026 C 105.853 293.782,106.353 294.400,106.604 294.400 C 107.317 294.400,108.712 296.084,109.017 297.314 C 109.179 297.965,109.771 298.675,110.443 299.022 C 111.075 299.349,111.909 300.107,112.296 300.706 C 113.863 303.130,125.873 314.400,126.890 314.400 C 127.923 314.400,129.543 315.967,129.674 317.095 C 129.776 317.967,130.066 318.225,131.198 318.455 C 132.046 318.627,132.912 319.174,133.398 319.843 C 135.007 322.058,140.178 326.815,141.864 327.631 C 142.816 328.092,143.953 328.973,144.392 329.589 C 144.831 330.205,145.867 330.981,146.695 331.313 C 147.523 331.646,148.851 332.552,149.646 333.326 C 150.442 334.101,152.205 335.296,153.565 335.982 C 154.924 336.668,156.132 337.479,156.249 337.783 C 156.365 338.086,157.419 338.789,158.591 339.344 C 159.763 339.898,160.964 340.685,161.261 341.093 C 161.557 341.500,162.812 342.322,164.049 342.921 C 165.285 343.519,166.916 344.592,167.673 345.306 C 168.515 346.100,169.995 346.887,171.491 347.335 C 172.891 347.754,174.605 348.641,175.506 349.412 C 176.370 350.152,177.870 351.062,178.839 351.433 C 179.807 351.805,181.230 352.595,182.000 353.190 C 184.085 354.799,184.835 355.125,188.412 355.979 C 190.209 356.408,192.156 357.083,192.739 357.478 C 196.119 359.769,205.251 359.727,207.751 357.410 C 208.776 356.461,210.200 355.948,213.255 355.428 C 214.056 355.292,215.316 354.738,216.055 354.197 C 218.890 352.123,219.707 351.685,221.182 351.449 C 222.249 351.279,223.234 350.684,224.473 349.462 C 225.685 348.268,226.735 347.626,227.807 347.425 C 229.777 347.055,231.434 346.211,231.737 345.421 C 231.865 345.086,233.331 344.184,234.994 343.415 C 236.657 342.647,238.123 341.745,238.252 341.409 C 238.380 341.074,239.642 340.248,241.056 339.573 C 242.470 338.898,243.845 337.997,244.112 337.569 C 244.379 337.142,245.633 336.153,246.899 335.371 C 248.164 334.590,249.200 333.807,249.200 333.630 C 249.200 332.863,251.349 331.262,252.712 331.012 C 253.577 330.854,254.786 330.186,255.600 329.416 C 256.370 328.687,257.693 327.847,258.541 327.550 C 259.486 327.219,261.652 325.533,264.141 323.193 C 266.373 321.095,268.695 319.063,269.300 318.679 C 269.905 318.296,270.400 317.747,270.400 317.461 C 270.400 316.696,272.030 315.345,273.321 315.040 C 274.016 314.875,274.756 314.242,275.269 313.372 C 275.724 312.602,276.616 311.702,277.250 311.374 C 277.885 311.046,278.838 310.091,279.367 309.251 C 279.897 308.412,280.871 307.502,281.531 307.229 C 282.211 306.947,282.942 306.222,283.218 305.558 C 283.485 304.912,284.265 303.936,284.952 303.388 C 285.638 302.840,286.348 302.228,286.530 302.026 C 286.854 301.666,289.138 299.400,290.243 298.340 C 291.807 296.842,294.549 293.652,295.257 292.507 C 295.697 291.795,296.460 290.895,296.952 290.507 C 297.443 290.118,298.689 288.506,299.720 286.925 C 300.751 285.344,301.783 283.934,302.014 283.792 C 302.244 283.649,302.904 282.786,303.479 281.874 C 304.055 280.962,304.966 279.870,305.503 279.447 C 306.041 279.025,306.811 277.908,307.215 276.965 C 307.619 276.023,308.423 274.941,309.002 274.562 C 309.581 274.183,310.696 272.596,311.480 271.036 C 312.265 269.476,313.312 267.823,313.808 267.361 C 314.331 266.874,314.831 265.785,314.999 264.761 C 315.462 261.954,316.216 260.481,317.266 260.332 C 317.946 260.236,318.490 259.604,319.268 258.008 C 319.855 256.803,320.786 255.453,321.336 255.008 C 321.951 254.512,322.447 253.583,322.622 252.600 C 323.015 250.400,324.215 248.140,325.401 247.362 C 326.002 246.969,326.560 246.061,326.818 245.056 C 327.726 241.525,328.509 239.532,329.408 238.463 C 329.923 237.851,330.781 235.800,331.315 233.905 C 331.848 232.010,332.836 229.628,333.510 228.611 C 334.678 226.847,334.929 225.872,335.849 219.521 C 335.967 218.707,336.579 217.263,337.210 216.311 C 338.527 214.321,338.972 212.581,339.584 207.018 C 339.879 204.337,340.278 202.639,340.808 201.818 C 342.636 198.984,342.821 198.100,343.216 190.280 C 343.671 181.264,344.569 172.058,345.417 167.701 C 345.934 165.044,346.011 158.609,345.958 122.800 C 345.889 76.297,346.130 80.949,343.266 70.800 C 342.800 69.150,342.326 67.323,342.212 66.740 C 342.071 66.020,341.627 65.548,340.827 65.269 C 340.104 65.017,339.362 64.299,338.906 63.411 C 337.147 59.982,331.146 56.541,325.220 55.563 C 323.779 55.325,322.150 54.819,321.600 54.438 C 320.006 53.335,319.347 53.192,313.941 52.781 C 308.026 52.331,303.279 51.498,301.467 50.593 C 299.194 49.457,297.510 49.229,280.684 47.782 C 279.191 47.654,276.530 47.118,274.772 46.592 C 269.800 45.104,266.326 44.795,252.373 44.605 C 238.053 44.409,234.452 44.084,232.767 42.839 C 231.997 42.270,230.561 41.885,228.126 41.597 C 223.503 41.049,181.219 40.747,174.871 41.217 M209.338 93.295 C 210.663 93.916,213.317 94.655,215.462 95.000 C 219.761 95.692,221.274 96.235,223.036 97.721 C 223.716 98.294,225.266 99.135,226.482 99.590 C 227.697 100.045,229.031 100.793,229.446 101.252 C 229.861 101.712,231.190 102.588,232.400 103.200 C 233.619 103.817,235.188 105.045,235.918 105.956 C 236.643 106.859,237.766 107.872,238.414 108.207 C 239.062 108.542,239.939 109.488,240.362 110.308 C 240.786 111.129,241.887 112.520,242.809 113.400 C 243.732 114.280,244.808 115.735,245.200 116.633 C 245.593 117.531,246.375 118.763,246.937 119.370 C 247.870 120.376,248.769 122.557,249.353 125.225 C 249.477 125.788,250.027 126.772,250.576 127.411 C 251.726 128.749,251.835 129.188,252.370 134.600 C 253.616 147.210,253.689 148.620,253.245 151.483 C 253.000 153.062,252.799 155.669,252.798 157.277 C 252.794 161.975,252.206 164.660,250.838 166.218 C 249.718 167.494,248.807 169.752,248.802 171.267 C 248.798 172.478,248.318 173.222,247.152 173.825 C 246.426 174.200,245.559 175.297,244.800 176.800 C 244.052 178.282,243.172 179.401,242.468 179.765 C 241.847 180.086,240.912 181.152,240.391 182.134 C 239.870 183.116,238.938 184.218,238.320 184.584 C 237.702 184.949,236.944 185.734,236.637 186.328 C 236.330 186.922,235.341 187.823,234.439 188.330 C 233.538 188.837,232.800 189.439,232.800 189.670 C 232.800 190.197,227.106 195.676,224.350 197.800 C 219.777 201.324,217.174 204.674,215.799 208.804 C 214.746 211.965,214.707 212.016,212.279 213.439 L 209.824 214.878 206.707 214.204 C 202.645 213.327,194.622 213.687,192.316 214.851 C 189.262 216.392,187.225 215.618,185.537 212.276 L 184.344 209.911 185.197 209.003 C 185.909 208.245,187.599 200.707,187.600 198.285 C 187.600 198.111,188.303 197.237,189.163 196.342 C 190.151 195.314,190.892 194.057,191.177 192.925 C 191.498 191.652,192.203 190.559,193.613 189.149 C 194.705 188.057,195.859 186.659,196.179 186.041 C 196.498 185.424,197.214 184.621,197.769 184.257 C 198.324 183.893,199.168 182.922,199.643 182.098 C 200.119 181.274,201.209 180.103,202.066 179.496 C 202.922 178.888,203.790 177.952,203.994 177.415 C 204.199 176.878,204.914 176.155,205.585 175.808 C 206.256 175.461,207.247 174.477,207.787 173.620 C 208.328 172.764,209.129 171.949,209.569 171.810 C 210.008 171.671,210.922 170.856,211.600 170.000 C 212.278 169.144,213.200 168.327,213.649 168.185 C 214.098 168.042,214.984 167.107,215.618 166.107 C 216.253 165.106,217.183 164.083,217.685 163.832 C 218.187 163.582,218.959 162.768,219.399 162.024 C 219.840 161.279,220.769 160.114,221.465 159.435 C 222.357 158.564,222.926 157.440,223.396 155.624 C 223.762 154.207,224.395 152.394,224.803 151.594 C 225.894 149.456,226.241 145.626,225.477 144.149 C 225.141 143.499,224.647 141.805,224.380 140.384 C 223.566 136.049,222.753 133.856,221.493 132.600 C 220.832 131.940,220.123 130.922,219.919 130.337 C 219.417 128.901,215.221 125.313,213.215 124.605 C 212.322 124.290,210.254 123.398,208.618 122.621 C 203.935 120.399,195.363 120.298,192.649 122.433 C 191.529 123.314,187.868 124.800,186.818 124.800 C 185.607 124.800,180.845 129.182,180.014 131.062 C 179.608 131.980,178.908 132.928,178.460 133.168 C 177.611 133.622,176.452 136.910,175.593 141.300 C 175.345 142.565,174.909 143.834,174.623 144.120 C 174.337 144.405,173.807 145.214,173.444 145.916 C 172.130 148.456,171.945 148.491,159.885 148.500 C 148.200 148.509,146.802 148.296,146.206 146.419 C 145.899 145.453,146.978 137.021,147.796 134.000 C 148.123 132.790,148.393 131.332,148.395 130.760 C 148.398 130.188,148.937 128.928,149.593 127.960 C 150.249 126.992,150.789 125.918,150.793 125.573 C 150.811 123.960,152.147 120.700,153.407 119.192 C 154.173 118.275,154.802 117.316,154.804 117.062 C 154.808 116.607,156.918 113.288,159.138 110.246 C 159.762 109.391,161.190 108.041,162.313 107.246 C 165.570 104.937,170.327 101.241,170.592 100.814 C 170.725 100.598,171.704 100.163,172.766 99.847 C 175.177 99.131,176.889 98.257,177.629 97.364 C 178.479 96.340,180.322 95.687,184.835 94.812 C 187.587 94.279,189.060 93.797,189.412 93.316 C 190.621 91.662,205.818 91.646,209.338 93.295 M202.853 245.536 C 203.224 245.970,204.537 246.473,206.042 246.758 C 210.572 247.617,211.251 247.978,214.398 251.207 C 219.850 256.802,220.567 258.493,220.588 265.800 C 220.606 271.969,220.172 274.205,218.621 275.936 C 217.900 276.741,217.023 277.959,216.674 278.642 C 215.750 280.451,212.059 283.862,210.202 284.624 C 209.321 284.986,207.340 285.897,205.800 286.647 C 201.666 288.662,196.098 288.535,193.278 286.361 C 192.771 285.971,191.174 285.257,189.729 284.777 C 186.835 283.813,184.585 281.915,183.259 279.317 C 182.833 278.482,182.088 277.440,181.602 277.001 C 178.439 274.140,178.530 260.757,181.745 256.062 C 182.295 255.258,183.035 253.867,183.388 252.971 C 184.424 250.343,187.224 248.485,191.276 247.737 C 194.886 247.071,199.443 245.800,200.400 245.193 C 201.321 244.609,202.159 244.726,202.853 245.536 " stroke="none" fill="#0c0981" fill-rule="evenodd"></path><path id="path1" d="M0.000 200.000 L 0.000 400.000 200.000 400.000 L 400.000 400.000 400.000 200.000 L 400.000 0.000 200.000 0.000 L 0.000 0.000 0.000 200.000 M233.668 39.599 C 241.005 40.076,245.714 40.705,247.553 41.453 C 249.486 42.239,254.732 42.776,262.800 43.012 C 274.520 43.356,278.971 43.932,286.800 46.121 C 288.010 46.459,292.000 46.932,295.667 47.172 C 303.599 47.691,305.986 48.101,308.395 49.357 C 310.300 50.350,313.677 50.999,319.051 51.402 C 322.981 51.697,325.973 52.445,327.480 53.507 C 328.096 53.941,329.678 54.607,330.995 54.987 C 334.023 55.860,335.472 56.611,336.916 58.054 C 337.546 58.684,338.304 59.200,338.600 59.200 C 338.897 59.200,339.558 59.756,340.070 60.436 C 340.581 61.116,341.667 62.308,342.482 63.086 C 343.616 64.167,344.070 65.012,344.418 66.687 C 344.951 69.256,345.684 70.994,346.849 72.457 C 348.348 74.337,348.406 76.273,348.386 123.773 C 348.366 174.056,348.177 179.512,346.380 181.802 C 345.920 182.388,345.278 187.717,344.815 194.800 C 344.368 201.627,343.994 203.421,342.575 205.566 C 341.888 206.605,341.393 208.399,340.800 212.003 C 340.219 215.536,339.627 217.703,338.781 219.400 C 338.122 220.720,337.229 223.563,336.796 225.719 C 335.967 229.843,335.617 230.755,334.223 232.432 C 333.727 233.030,333.073 234.826,332.671 236.697 C 332.139 239.172,331.708 240.194,330.829 241.064 C 330.032 241.854,329.411 243.176,328.794 245.400 C 328.171 247.646,327.517 249.031,326.601 250.048 C 325.384 251.398,324.810 252.665,324.239 255.259 C 324.097 255.901,323.453 256.643,322.603 257.145 C 321.564 257.758,321.200 258.246,321.200 259.026 C 321.200 260.577,320.065 262.699,318.726 263.653 C 318.078 264.114,317.116 265.472,316.582 266.679 C 316.050 267.883,315.206 269.357,314.707 269.956 C 314.208 270.554,313.291 272.119,312.669 273.432 C 311.978 274.894,311.103 276.071,310.415 276.465 C 309.721 276.864,309.103 277.701,308.799 278.655 C 308.528 279.505,307.724 280.830,307.013 281.600 C 306.301 282.370,305.061 284.106,304.256 285.459 C 303.451 286.811,302.531 288.018,302.212 288.140 C 301.893 288.262,301.190 289.235,300.650 290.302 C 300.100 291.387,299.219 292.445,298.650 292.705 C 298.090 292.959,297.263 293.891,296.812 294.776 C 296.361 295.660,295.455 296.662,294.797 297.001 C 294.126 297.349,293.346 298.234,293.016 299.024 C 292.616 299.981,291.981 300.616,291.024 301.016 C 290.235 301.345,289.349 302.126,289.002 302.796 C 288.663 303.452,287.770 304.306,287.018 304.694 C 286.266 305.082,285.227 306.030,284.710 306.800 C 284.193 307.570,283.276 308.438,282.673 308.728 C 282.069 309.018,281.124 309.970,280.573 310.843 C 280.021 311.717,279.123 312.601,278.575 312.809 C 278.028 313.017,277.227 313.786,276.796 314.517 C 276.365 315.248,275.373 316.151,274.592 316.523 C 273.812 316.895,272.827 317.786,272.404 318.503 C 271.981 319.220,271.080 320.134,270.403 320.535 C 269.725 320.935,268.725 321.969,268.180 322.831 C 267.636 323.694,267.014 324.400,266.799 324.400 C 266.584 324.400,265.424 325.292,264.221 326.381 C 261.838 328.539,260.073 329.600,258.866 329.600 C 258.440 329.600,257.786 330.067,257.413 330.637 C 257.039 331.207,255.762 332.103,254.576 332.628 C 253.389 333.153,252.189 333.961,251.909 334.424 C 251.629 334.887,250.720 335.618,249.889 336.047 C 249.058 336.476,247.391 337.721,246.185 338.814 C 244.979 339.906,243.714 340.800,243.376 340.800 C 242.348 340.800,240.471 341.946,240.224 342.724 C 240.096 343.127,238.869 343.984,237.497 344.628 C 236.125 345.273,234.527 346.312,233.947 346.938 C 233.367 347.565,231.906 348.402,230.700 348.800 C 229.494 349.198,227.650 350.178,226.603 350.977 C 225.556 351.776,223.909 352.642,222.942 352.900 C 221.913 353.175,220.550 353.979,219.656 354.838 C 218.431 356.016,217.540 356.440,215.164 356.978 C 213.031 357.461,211.864 357.971,211.000 358.798 C 207.982 361.688,192.216 361.557,188.200 358.609 C 187.540 358.124,185.663 357.324,184.030 356.831 C 182.033 356.228,180.706 355.556,179.983 354.781 C 179.390 354.147,177.893 353.249,176.656 352.787 C 175.419 352.324,173.908 351.447,173.300 350.838 C 171.883 349.422,171.085 349.020,168.475 348.407 C 167.024 348.066,165.944 347.495,165.075 346.606 C 164.374 345.891,163.080 344.938,162.200 344.489 C 161.320 344.040,160.080 343.126,159.444 342.456 C 158.808 341.787,157.762 341.123,157.120 340.982 C 156.478 340.841,155.354 340.127,154.622 339.395 C 153.890 338.663,152.204 337.499,150.875 336.807 C 149.546 336.115,148.161 335.095,147.797 334.539 C 147.433 333.983,146.272 333.170,145.218 332.732 C 144.148 332.287,143.071 331.507,142.781 330.965 C 142.496 330.432,141.339 329.573,140.210 329.056 C 138.278 328.172,136.044 326.355,132.237 322.574 C 131.337 321.680,130.104 320.641,129.499 320.264 C 128.893 319.888,127.948 318.868,127.398 317.997 C 126.833 317.101,125.965 316.306,125.399 316.164 C 124.848 316.026,123.976 315.411,123.460 314.798 C 122.944 314.185,121.942 313.384,121.233 313.017 C 120.524 312.650,119.585 311.743,119.147 311.000 C 118.709 310.257,117.723 309.279,116.956 308.827 C 116.181 308.370,115.311 307.406,114.998 306.658 C 114.661 305.851,113.972 305.120,113.278 304.833 C 112.638 304.567,111.724 303.647,111.233 302.772 C 110.744 301.903,109.829 300.925,109.200 300.600 C 108.571 300.275,107.929 299.602,107.772 299.104 C 107.616 298.607,106.623 297.300,105.566 296.200 C 103.694 294.251,102.287 292.726,97.818 287.800 C 93.043 282.537,91.610 280.658,91.362 279.336 C 91.209 278.524,90.549 277.459,89.721 276.688 C 88.959 275.980,87.875 274.501,87.311 273.402 C 86.748 272.304,85.695 270.629,84.971 269.680 C 84.246 268.731,83.534 267.411,83.388 266.746 C 83.242 266.081,82.420 264.876,81.562 264.068 C 80.482 263.053,79.751 261.850,79.190 260.168 C 78.646 258.536,78.001 257.455,77.227 256.883 C 76.523 256.363,75.822 255.269,75.424 254.073 C 75.067 252.996,74.313 251.684,73.749 251.157 C 72.395 249.893,71.825 248.729,71.029 245.600 C 70.665 244.170,69.884 242.301,69.293 241.447 C 68.684 240.568,67.843 238.369,67.353 236.379 C 66.771 234.010,66.099 232.364,65.294 231.332 C 64.469 230.273,63.837 228.694,63.249 226.221 C 62.655 223.723,62.092 222.322,61.384 221.584 C 60.107 220.251,59.784 219.038,59.007 212.654 C 58.562 209.001,58.092 206.900,57.388 205.412 C 56.083 202.652,55.731 200.544,54.992 191.073 C 54.515 184.952,54.149 182.456,53.385 180.114 C 51.674 174.872,51.558 170.879,51.683 121.200 C 51.807 71.655,51.725 73.736,53.639 71.898 C 54.472 71.099,55.600 67.634,55.600 65.875 C 55.600 65.044,56.015 64.303,57.000 63.374 C 57.827 62.595,58.400 61.670,58.400 61.116 C 58.400 59.750,59.495 58.400,60.602 58.400 C 61.158 58.400,62.049 57.877,62.726 57.152 C 63.705 56.105,64.402 55.815,67.046 55.355 C 68.910 55.031,70.609 54.479,71.200 54.006 C 73.388 52.254,74.468 51.954,80.722 51.362 C 87.348 50.734,88.404 50.529,93.200 48.939 C 95.476 48.184,97.939 47.807,103.400 47.376 C 112.294 46.673,115.505 46.202,116.347 45.476 C 117.789 44.234,119.986 43.906,129.000 43.587 C 140.591 43.177,145.542 42.643,149.429 41.385 C 155.293 39.487,213.110 38.261,233.668 39.599 M196.200 95.853 C 194.880 95.934,191.234 96.271,188.098 96.600 C 184.962 96.930,182.208 97.200,181.978 97.200 C 181.747 97.200,180.983 97.803,180.280 98.540 C 178.977 99.904,177.925 100.424,174.907 101.195 C 173.976 101.433,173.035 101.962,172.816 102.370 C 172.597 102.779,171.439 103.666,170.243 104.341 C 169.046 105.016,167.827 105.906,167.534 106.319 C 167.240 106.731,165.888 107.825,164.529 108.750 C 162.897 109.860,161.688 111.070,160.968 112.315 C 160.368 113.352,159.199 114.946,158.369 115.858 C 157.540 116.770,156.673 118.195,156.444 119.025 C 156.215 119.855,155.487 121.091,154.827 121.772 C 153.910 122.718,153.384 123.945,152.598 126.968 C 151.483 131.262,151.422 131.414,150.373 132.600 C 148.821 134.353,147.918 142.072,148.970 144.589 L 149.539 145.952 155.270 145.745 C 163.108 145.462,162.645 145.456,166.000 145.886 C 167.650 146.098,169.326 146.186,169.724 146.082 C 170.689 145.832,174.158 138.616,175.052 135.000 C 175.548 132.994,176.087 131.860,176.952 131.000 C 177.616 130.340,178.528 129.141,178.980 128.337 C 180.226 126.113,183.245 123.760,185.806 123.015 C 187.034 122.659,188.141 122.097,188.267 121.769 C 189.454 118.677,208.248 118.184,211.387 121.163 C 212.079 121.818,213.596 122.597,214.917 122.973 C 217.664 123.755,220.034 125.726,221.412 128.375 C 221.934 129.379,222.799 130.604,223.334 131.097 C 223.961 131.675,224.602 133.082,225.139 135.056 C 225.597 136.740,226.326 138.496,226.759 138.959 C 229.167 141.530,229.073 153.706,226.638 154.641 C 226.309 154.767,225.741 155.710,225.376 156.735 C 225.012 157.761,224.541 159.072,224.330 159.648 C 224.119 160.225,223.521 160.890,223.001 161.127 C 222.481 161.364,221.702 162.358,221.269 163.338 C 220.649 164.738,220.217 165.177,219.246 165.390 C 218.281 165.602,217.842 166.042,217.243 167.396 C 216.821 168.351,216.053 169.355,215.538 169.627 C 215.022 169.900,213.852 170.861,212.937 171.762 C 212.023 172.663,210.981 173.670,210.623 174.000 C 210.264 174.330,209.498 175.200,208.921 175.934 C 208.343 176.668,207.447 177.430,206.928 177.627 C 206.410 177.824,205.822 178.415,205.623 178.940 C 205.216 180.010,203.380 181.600,202.551 181.600 C 202.254 181.600,201.756 182.210,201.444 182.956 C 201.133 183.702,200.261 185.007,199.507 185.856 C 198.753 186.705,197.565 188.243,196.867 189.273 C 196.169 190.304,195.063 191.528,194.409 191.994 C 193.642 192.540,193.060 193.436,192.768 194.520 C 192.189 196.674,191.530 197.931,190.270 199.288 C 189.239 200.399,188.243 204.068,187.868 208.143 C 187.713 209.821,187.833 210.245,188.744 211.249 L 189.800 212.411 193.200 211.757 C 195.836 211.251,198.151 211.145,203.500 211.290 C 208.831 211.434,210.572 211.355,211.158 210.945 C 212.157 210.245,214.206 206.553,214.535 204.861 C 214.713 203.947,215.653 202.644,217.498 200.754 C 218.984 199.232,220.470 197.707,220.800 197.365 C 222.452 195.653,227.199 191.902,228.698 191.124 C 229.632 190.639,230.508 189.873,230.644 189.421 C 231.001 188.240,232.325 186.906,233.411 186.633 C 233.926 186.504,234.461 186.039,234.600 185.601 C 234.739 185.162,235.741 184.054,236.826 183.139 C 237.912 182.224,238.800 181.256,238.800 180.988 C 238.800 180.720,239.787 179.394,240.994 178.042 C 242.201 176.689,243.481 175.002,243.839 174.291 C 244.197 173.581,245.022 172.439,245.672 171.752 C 246.493 170.887,247.039 169.701,247.454 167.882 C 247.783 166.439,248.570 164.476,249.204 163.520 C 252.159 159.058,252.060 134.152,249.068 129.631 C 248.514 128.793,247.847 127.318,247.588 126.354 C 247.021 124.246,246.184 122.564,245.151 121.455 C 244.730 121.004,244.194 119.921,243.959 119.048 C 243.687 118.038,242.852 116.797,241.658 115.631 C 240.628 114.624,239.341 112.949,238.798 111.909 C 238.210 110.782,237.378 109.840,236.738 109.574 C 236.147 109.330,234.897 108.311,233.959 107.311 C 233.015 106.303,231.313 105.075,230.145 104.559 C 228.985 104.046,227.735 103.168,227.369 102.608 C 227.002 102.048,226.229 101.485,225.651 101.355 C 222.326 100.610,221.447 100.226,219.785 98.787 C 218.777 97.914,217.827 97.196,217.676 97.191 C 217.524 97.187,215.150 96.907,212.400 96.569 C 207.084 95.915,200.153 95.609,196.200 95.853 M230.400 122.176 C 230.400 122.493,230.232 122.856,230.028 122.983 C 229.552 123.277,229.074 122.528,229.400 122.000 C 229.768 121.405,230.400 121.516,230.400 122.176 M197.638 248.789 C 196.450 248.975,195.266 249.047,195.007 248.947 C 194.378 248.706,192.389 249.485,191.400 250.362 C 190.960 250.752,189.970 251.319,189.200 251.622 C 187.325 252.360,186.629 253.215,184.778 257.048 C 183.916 258.834,182.847 260.544,182.403 260.848 C 180.211 262.346,180.535 272.551,182.841 274.636 C 183.305 275.056,184.051 276.120,184.497 277.000 C 186.432 280.812,191.211 283.942,195.200 284.011 C 195.750 284.021,196.650 284.286,197.200 284.600 C 198.517 285.353,201.601 285.355,202.675 284.603 C 203.408 284.089,204.581 283.761,209.831 282.603 C 210.289 282.502,210.867 281.971,211.116 281.424 C 211.366 280.877,212.280 279.981,213.149 279.432 C 214.211 278.762,214.815 278.043,214.992 277.238 C 215.136 276.580,215.805 275.357,216.478 274.521 C 219.207 271.130,219.972 263.602,217.905 260.489 C 217.361 259.670,216.408 258.100,215.789 257.000 C 214.154 254.098,209.643 249.749,207.740 249.241 C 205.488 248.639,200.128 248.399,197.638 248.789 M302.400 302.233 C 302.400 302.940,301.539 302.817,301.292 302.075 C 301.205 301.814,301.418 301.600,301.767 301.600 C 302.115 301.600,302.400 301.885,302.400 302.233 " stroke="none" fill="#fbfbfb" fill-rule="evenodd"></path><path id="path2" d="M193.720 39.898 C 195.655 39.972,198.715 39.971,200.520 39.897 C 202.324 39.823,200.740 39.763,197.000 39.764 C 193.260 39.764,191.784 39.825,193.720 39.898 M174.300 40.295 C 175.455 40.376,177.345 40.376,178.500 40.295 C 179.655 40.214,178.710 40.148,176.400 40.148 C 174.090 40.148,173.145 40.214,174.300 40.295 M215.300 40.298 C 217.445 40.370,220.955 40.370,223.100 40.298 C 225.245 40.226,223.490 40.167,219.200 40.167 C 214.910 40.167,213.155 40.226,215.300 40.298 M164.400 40.659 C 161.507 40.852,156.118 41.602,151.680 42.431 C 149.414 42.854,146.894 43.229,146.080 43.264 C 144.722 43.323,144.701 43.341,145.819 43.483 C 146.489 43.569,149.999 43.156,153.619 42.567 C 157.239 41.977,162.900 41.272,166.200 41.000 C 170.173 40.673,171.186 40.512,169.200 40.523 C 167.550 40.532,165.390 40.594,164.400 40.659 M230.800 40.859 C 234.189 41.211,238.308 41.898,244.000 43.061 C 246.032 43.477,249.904 43.712,256.000 43.789 L 265.000 43.904 256.400 43.593 C 250.027 43.362,246.819 43.062,244.010 42.434 C 239.365 41.397,231.816 40.381,229.280 40.453 C 227.918 40.492,228.337 40.603,230.800 40.859 M141.107 43.890 C 141.826 43.979,142.906 43.977,143.507 43.886 C 144.108 43.795,143.520 43.722,142.200 43.724 C 140.880 43.726,140.388 43.801,141.107 43.890 M135.300 44.287 C 135.905 44.378,136.895 44.378,137.500 44.287 C 138.105 44.195,137.610 44.120,136.400 44.120 C 135.190 44.120,134.695 44.195,135.300 44.287 M267.705 44.287 C 268.314 44.379,269.214 44.377,269.705 44.282 C 270.197 44.187,269.700 44.111,268.600 44.114 C 267.500 44.117,267.097 44.195,267.705 44.287 M124.000 44.817 C 122.570 44.988,120.860 45.349,120.200 45.619 C 119.540 45.889,118.100 46.355,117.000 46.655 C 115.108 47.170,115.088 47.189,116.625 47.007 C 117.519 46.901,119.388 46.451,120.777 46.007 C 122.167 45.563,123.866 45.190,124.552 45.177 C 125.238 45.164,126.520 45.005,127.400 44.823 C 129.536 44.381,127.664 44.378,124.000 44.817 M271.800 44.681 C 272.460 44.769,274.644 45.282,276.654 45.821 C 278.664 46.359,280.734 46.789,281.254 46.775 C 281.774 46.761,280.130 46.221,277.601 45.575 C 275.071 44.929,272.461 44.427,271.801 44.460 L 270.600 44.520 271.800 44.681 M283.300 47.087 C 283.905 47.178,284.895 47.178,285.500 47.087 C 286.105 46.995,285.610 46.920,284.400 46.920 C 283.190 46.920,282.695 46.995,283.300 47.087 M112.305 47.483 C 112.802 47.579,113.522 47.575,113.905 47.475 C 114.287 47.375,113.880 47.296,113.000 47.301 C 112.120 47.305,111.807 47.387,112.305 47.483 M107.900 47.882 C 108.395 47.978,109.205 47.978,109.700 47.882 C 110.195 47.787,109.790 47.709,108.800 47.709 C 107.810 47.709,107.405 47.787,107.900 47.882 M290.300 47.889 C 291.015 47.978,292.185 47.978,292.900 47.889 C 293.615 47.801,293.030 47.728,291.600 47.728 C 290.170 47.728,289.585 47.801,290.300 47.889 M103.905 48.283 C 104.402 48.379,105.122 48.375,105.505 48.275 C 105.887 48.175,105.480 48.096,104.600 48.101 C 103.720 48.105,103.407 48.187,103.905 48.283 M295.905 48.283 C 296.402 48.379,297.122 48.375,297.505 48.275 C 297.887 48.175,297.480 48.096,296.600 48.101 C 295.720 48.105,295.407 48.187,295.905 48.283 M99.705 48.687 C 100.314 48.779,101.214 48.777,101.705 48.682 C 102.197 48.587,101.700 48.511,100.600 48.514 C 99.500 48.517,99.097 48.595,99.705 48.687 M299.400 48.667 C 299.840 48.760,302.042 49.384,304.294 50.053 C 306.546 50.723,308.616 51.179,308.894 51.067 C 309.200 50.944,309.121 50.851,308.692 50.832 C 308.303 50.814,306.706 50.353,305.144 49.807 C 303.581 49.261,301.469 48.743,300.451 48.656 C 299.433 48.569,298.960 48.574,299.400 48.667 M95.413 49.672 C 94.540 50.132,92.920 50.657,91.813 50.837 L 89.800 51.166 92.131 51.009 C 93.413 50.922,94.927 50.546,95.496 50.174 C 96.065 49.801,96.996 49.355,97.565 49.182 C 98.364 48.940,98.417 48.865,97.800 48.852 C 97.360 48.843,96.286 49.212,95.413 49.672 M84.900 51.876 C 85.285 51.976,85.915 51.976,86.300 51.876 C 86.685 51.775,86.370 51.693,85.600 51.693 C 84.830 51.693,84.515 51.775,84.900 51.876 M312.500 51.876 C 312.885 51.976,313.515 51.976,313.900 51.876 C 314.285 51.775,313.970 51.693,313.200 51.693 C 312.430 51.693,312.115 51.775,312.500 51.876 M80.700 52.282 C 81.195 52.378,82.005 52.378,82.500 52.282 C 82.995 52.187,82.590 52.109,81.600 52.109 C 80.610 52.109,80.205 52.187,80.700 52.282 M316.700 52.282 C 317.195 52.378,318.005 52.378,318.500 52.282 C 318.995 52.187,318.590 52.109,317.600 52.109 C 316.610 52.109,316.205 52.187,316.700 52.282 M75.880 52.871 C 74.219 53.477,69.471 56.000,69.992 56.000 C 70.239 56.000,71.669 55.364,73.170 54.588 C 74.671 53.811,76.687 53.021,77.650 52.832 C 79.009 52.565,79.132 52.485,78.200 52.475 C 77.540 52.469,76.496 52.647,75.880 52.871 M323.600 53.809 C 325.910 54.569,327.968 55.137,328.174 55.071 C 328.673 54.910,321.061 52.396,320.129 52.413 C 319.728 52.421,321.290 53.049,323.600 53.809 M330.000 55.800 C 331.826 56.503,332.545 56.493,331.000 55.786 C 330.340 55.483,329.530 55.242,329.200 55.248 C 328.870 55.255,329.230 55.503,330.000 55.800 M63.853 57.607 C 63.097 58.271,61.930 59.006,61.259 59.239 C 60.370 59.549,59.912 60.060,59.564 61.132 C 59.302 61.939,58.483 63.276,57.744 64.101 C 56.916 65.026,56.398 66.024,56.395 66.701 C 56.392 67.306,56.298 68.250,56.186 68.800 C 56.010 69.672,56.032 69.697,56.364 69.000 C 56.573 68.560,56.756 67.616,56.772 66.901 C 56.791 66.025,57.232 65.114,58.128 64.101 C 58.859 63.276,59.688 62.021,59.971 61.313 C 60.254 60.606,60.839 59.915,61.269 59.778 C 61.700 59.641,62.626 59.034,63.326 58.428 C 64.027 57.822,64.960 57.124,65.400 56.875 C 65.840 56.627,65.981 56.419,65.714 56.412 C 65.447 56.405,64.609 56.943,63.853 57.607 M333.000 56.879 C 336.212 58.704,342.801 65.192,343.218 66.940 C 343.509 68.163,343.519 68.168,343.559 67.113 C 343.631 65.215,334.599 56.359,332.645 56.412 C 332.400 56.419,332.560 56.629,333.000 56.879 M343.621 68.732 C 343.609 69.024,344.038 70.374,344.573 71.732 C 347.209 78.418,347.000 73.955,347.000 123.600 L 347.000 168.600 345.901 174.600 C 345.296 177.900,344.816 181.140,344.834 181.800 C 344.851 182.460,345.207 181.110,345.624 178.800 C 346.042 176.490,346.612 173.340,346.891 171.800 C 347.283 169.642,347.400 158.552,347.400 123.400 L 347.400 77.800 346.541 75.600 C 344.007 69.108,343.640 68.244,343.621 68.732 M54.806 72.109 C 54.286 73.259,53.599 74.830,53.279 75.600 C 52.787 76.786,52.676 83.506,52.551 119.600 C 52.403 162.362,52.553 168.909,53.812 174.821 C 54.161 176.459,54.687 179.420,54.980 181.400 C 55.274 183.380,55.530 184.460,55.550 183.800 C 55.589 182.495,54.833 177.488,53.737 171.800 C 53.108 168.531,53.040 164.135,52.991 124.000 C 52.934 77.099,52.925 77.327,54.866 73.117 C 55.557 71.617,56.039 70.306,55.937 70.204 C 55.835 70.102,55.326 70.959,54.806 72.109 M195.600 93.620 C 194.170 93.788,192.292 94.140,191.428 94.402 C 190.563 94.663,188.583 95.111,187.028 95.396 C 185.472 95.680,184.629 95.933,185.154 95.957 C 185.679 95.981,188.379 95.527,191.154 94.948 C 197.302 93.666,204.347 93.481,207.118 94.528 C 208.063 94.885,209.773 95.272,210.918 95.388 L 213.000 95.598 210.800 95.056 C 209.590 94.758,207.527 94.219,206.216 93.857 C 203.739 93.174,200.078 93.092,195.600 93.620 M180.600 96.677 C 179.940 97.032,178.852 97.738,178.182 98.246 C 177.513 98.754,176.343 99.439,175.582 99.769 C 174.822 100.099,174.432 100.376,174.716 100.384 C 175.386 100.405,178.271 98.932,178.598 98.403 C 178.944 97.843,181.142 96.729,182.600 96.374 C 183.686 96.110,183.705 96.080,182.800 96.057 C 182.250 96.043,181.260 96.322,180.600 96.677 M219.451 97.167 C 220.359 97.579,221.226 98.118,221.378 98.364 C 221.795 99.039,224.793 100.474,225.330 100.255 C 225.607 100.142,225.547 100.050,225.181 100.032 C 224.841 100.014,223.329 99.190,221.822 98.200 C 220.315 97.210,218.793 96.404,218.441 96.409 C 218.088 96.414,218.543 96.755,219.451 97.167 M172.200 101.183 C 171.540 101.612,169.976 102.737,168.725 103.682 C 167.473 104.627,165.603 106.030,164.568 106.800 C 161.034 109.430,157.699 113.447,155.600 117.600 C 155.100 118.590,154.267 119.907,153.749 120.527 C 153.231 121.146,152.420 122.946,151.946 124.527 C 151.473 126.107,150.684 128.120,150.191 129.000 C 149.293 130.607,148.399 134.013,149.194 132.800 C 149.411 132.470,149.591 131.819,149.594 131.354 C 149.597 130.889,149.940 130.076,150.355 129.548 C 150.770 129.020,151.503 127.241,151.983 125.594 C 152.463 123.947,153.441 121.700,154.157 120.600 C 154.872 119.500,155.984 117.768,156.629 116.751 C 159.784 111.772,161.630 109.337,162.741 108.689 C 163.411 108.298,164.902 107.175,166.053 106.192 C 167.203 105.210,169.479 103.505,171.110 102.403 C 173.885 100.528,174.825 99.477,172.200 101.183 M227.056 101.169 C 227.747 101.590,228.429 102.123,228.571 102.354 C 228.714 102.584,230.046 103.411,231.532 104.192 C 233.096 105.014,234.513 106.084,234.896 106.732 C 235.260 107.347,236.208 108.200,237.004 108.625 C 237.906 109.108,238.888 110.163,239.613 111.427 C 240.252 112.541,241.167 113.801,241.646 114.227 C 242.125 114.652,243.031 115.702,243.659 116.560 C 244.286 117.418,244.800 117.905,244.800 117.643 C 244.800 117.380,244.013 116.318,243.050 115.283 C 242.088 114.247,240.651 112.378,239.857 111.129 C 239.062 109.880,238.073 108.750,237.658 108.618 C 237.243 108.487,236.186 107.591,235.309 106.627 C 234.432 105.663,232.959 104.489,232.036 104.018 C 231.112 103.547,229.543 102.540,228.548 101.781 C 227.553 101.021,226.528 100.401,226.269 100.401 C 226.011 100.402,226.365 100.748,227.056 101.169 M244.800 118.661 C 244.800 118.871,245.317 119.753,245.950 120.621 C 246.582 121.490,247.228 122.619,247.386 123.130 C 247.544 123.642,247.752 123.982,247.848 123.886 C 248.154 123.580,247.276 121.699,246.018 119.961 C 245.348 119.037,244.800 118.452,244.800 118.661 M197.705 120.287 C 198.314 120.379,199.214 120.377,199.705 120.282 C 200.197 120.187,199.700 120.111,198.600 120.114 C 197.500 120.117,197.097 120.195,197.705 120.287 M203.500 120.282 C 203.995 120.378,204.805 120.378,205.300 120.282 C 205.795 120.187,205.390 120.109,204.400 120.109 C 203.410 120.109,203.005 120.187,203.500 120.282 M191.842 121.027 C 190.985 121.341,190.059 121.785,189.783 122.014 C 189.508 122.242,188.589 122.789,187.741 123.229 C 186.782 123.727,186.578 123.933,187.200 123.774 C 187.750 123.634,188.830 123.103,189.600 122.593 C 190.934 121.709,193.026 120.987,195.200 120.660 C 195.885 120.556,195.758 120.501,194.800 120.483 C 194.030 120.468,192.699 120.713,191.842 121.027 M206.800 120.654 C 207.130 120.796,208.255 121.340,209.300 121.863 C 210.345 122.386,211.200 122.735,211.200 122.639 C 211.200 122.261,208.531 120.849,207.400 120.629 C 206.740 120.500,206.470 120.511,206.800 120.654 M217.577 126.436 C 219.130 127.775,220.400 129.065,220.400 129.302 C 220.400 129.539,220.508 129.625,220.641 129.493 C 221.169 128.965,216.200 124.000,215.145 124.000 C 214.930 124.000,216.025 125.096,217.577 126.436 M182.283 126.219 C 181.067 127.219,179.779 128.659,179.418 129.418 C 179.058 130.177,178.298 131.294,177.729 131.899 C 176.658 133.038,175.579 135.190,175.628 136.087 C 175.644 136.369,175.910 135.908,176.221 135.061 C 176.531 134.215,177.325 132.908,177.985 132.156 C 178.645 131.404,179.449 130.278,179.773 129.653 C 180.096 129.028,181.374 127.590,182.612 126.458 C 185.398 123.912,185.232 123.791,182.283 126.219 M248.218 125.400 C 248.345 126.060,248.919 127.319,249.495 128.198 C 250.070 129.077,250.671 130.337,250.830 130.998 C 251.107 132.155,251.120 132.161,251.159 131.156 C 251.182 130.582,250.725 129.412,250.145 128.557 C 249.564 127.701,248.842 126.371,248.539 125.601 C 248.031 124.309,248.006 124.293,248.218 125.400 M221.148 130.678 C 221.399 131.160,221.798 131.675,222.035 131.821 C 222.271 131.968,222.810 132.653,223.231 133.344 C 223.652 134.035,223.998 134.392,223.999 134.138 C 223.999 133.884,223.350 132.894,222.557 131.938 C 220.716 129.722,220.594 129.613,221.148 130.678 M251.293 134.000 C 251.293 134.770,251.375 135.085,251.476 134.700 C 251.576 134.315,251.576 133.685,251.476 133.300 C 251.375 132.915,251.293 133.230,251.293 134.000 M224.056 135.200 C 224.056 135.530,224.211 136.160,224.400 136.600 C 224.617 137.104,224.744 137.178,224.744 136.800 C 224.744 136.470,224.589 135.840,224.400 135.400 C 224.183 134.896,224.056 134.822,224.056 135.200 M251.737 139.000 C 251.739 140.760,251.809 141.430,251.893 140.489 C 251.978 139.549,251.977 138.109,251.891 137.289 C 251.805 136.470,251.736 137.240,251.737 139.000 M147.693 138.400 C 147.693 139.170,147.775 139.485,147.876 139.100 C 147.976 138.715,147.976 138.085,147.876 137.700 C 147.775 137.315,147.693 137.630,147.693 138.400 M225.332 139.800 C 225.459 140.240,225.950 141.680,226.423 143.000 C 227.507 146.023,227.266 149.482,225.775 152.285 C 225.224 153.322,224.490 155.167,224.144 156.385 C 223.751 157.769,222.967 159.200,222.057 160.200 L 220.600 161.800 222.264 160.254 C 223.425 159.175,224.065 158.165,224.380 156.912 C 224.629 155.924,225.481 153.878,226.273 152.366 C 228.118 148.844,228.089 144.451,226.197 141.000 C 225.594 139.900,225.205 139.360,225.332 139.800 M173.223 142.698 C 170.945 147.410,171.161 147.304,164.400 147.070 L 158.600 146.869 164.146 147.278 C 168.062 147.566,169.969 147.560,170.635 147.257 C 171.503 146.861,175.099 140.566,174.690 140.157 C 174.602 140.068,173.941 141.212,173.223 142.698 M147.258 142.400 C 147.155 147.216,149.369 148.523,155.400 147.204 C 156.536 146.956,155.956 146.917,153.399 147.071 C 148.653 147.357,148.087 146.957,147.629 142.997 L 147.305 140.200 147.258 142.400 M252.150 147.800 C 252.151 150.220,252.216 151.158,252.296 149.885 C 252.376 148.612,252.375 146.632,252.294 145.485 C 252.214 144.338,252.149 145.380,252.150 147.800 M251.746 157.000 C 251.747 159.200,251.814 160.049,251.895 158.887 C 251.976 157.724,251.976 155.924,251.893 154.887 C 251.811 153.849,251.745 154.800,251.746 157.000 M251.193 161.900 C 251.189 162.285,250.649 163.392,249.993 164.360 C 249.337 165.328,248.800 166.312,248.800 166.547 C 248.800 166.781,249.430 165.995,250.200 164.800 C 251.431 162.889,251.994 161.200,251.400 161.200 C 251.290 161.200,251.197 161.515,251.193 161.900 M219.200 163.510 C 218.430 164.238,217.564 165.051,217.275 165.317 C 216.986 165.583,216.289 166.520,215.725 167.400 C 214.891 168.700,214.852 168.863,215.513 168.271 C 215.961 167.870,216.530 167.053,216.777 166.455 C 217.025 165.856,217.813 165.052,218.528 164.667 C 219.647 164.064,221.111 162.459,220.728 162.254 C 220.657 162.216,219.970 162.781,219.200 163.510 M248.229 168.229 C 248.081 168.815,248.038 169.372,248.132 169.466 C 248.227 169.560,248.424 169.158,248.571 168.571 C 248.719 167.985,248.762 167.428,248.668 167.334 C 248.573 167.240,248.376 167.642,248.229 168.229 M207.130 175.784 C 203.319 179.626,199.390 183.772,198.400 184.999 C 197.410 186.226,195.749 188.182,194.709 189.345 C 192.941 191.321,190.892 195.025,191.327 195.460 C 191.433 195.567,191.744 194.977,192.017 194.149 C 192.290 193.322,193.276 191.825,194.209 190.822 C 195.141 189.820,196.246 188.433,196.664 187.739 C 197.910 185.672,200.992 182.305,207.694 175.691 C 207.856 175.531,208.582 174.770,209.307 174.000 C 210.032 173.230,210.979 172.307,211.412 171.950 C 212.446 171.097,214.525 168.800,214.264 168.800 C 214.152 168.800,210.942 171.943,207.130 175.784 M247.600 170.530 C 247.600 170.822,247.133 171.497,246.562 172.030 C 245.991 172.564,245.269 173.540,244.956 174.200 C 244.631 174.888,244.604 175.077,244.894 174.644 C 245.172 174.228,245.985 173.289,246.700 172.557 C 247.821 171.410,248.428 170.000,247.800 170.000 C 247.690 170.000,247.600 170.239,247.600 170.530 M243.047 177.200 C 242.465 178.080,241.807 178.800,241.586 178.800 C 241.364 178.800,240.679 179.594,240.063 180.565 C 239.447 181.536,237.606 183.604,235.972 185.161 C 232.327 188.632,232.287 188.672,230.629 190.400 C 229.891 191.170,228.059 192.790,226.558 194.000 C 224.160 195.934,220.834 199.136,217.211 203.000 C 215.976 204.317,215.200 205.658,215.200 206.474 C 215.200 206.763,215.582 206.230,216.048 205.289 C 216.514 204.348,217.217 203.405,217.612 203.194 C 218.006 202.983,218.708 202.196,219.172 201.445 C 219.636 200.695,221.227 199.055,222.708 197.801 C 228.301 193.065,229.387 192.065,234.526 186.916 C 240.981 180.449,245.169 175.600,244.299 175.600 C 244.193 175.600,243.630 176.320,243.047 177.200 M344.514 185.000 C 344.517 186.100,344.595 186.503,344.687 185.895 C 344.779 185.286,344.777 184.386,344.682 183.895 C 344.587 183.403,344.511 183.900,344.514 185.000 M55.737 188.600 C 55.739 190.360,55.809 191.030,55.893 190.089 C 55.978 189.149,55.977 187.709,55.891 186.889 C 55.805 186.070,55.736 186.840,55.737 188.600 M344.128 190.000 C 344.128 191.430,344.201 192.015,344.289 191.300 C 344.378 190.585,344.378 189.415,344.289 188.700 C 344.201 187.985,344.128 188.570,344.128 190.000 M56.120 195.200 C 56.120 196.410,56.195 196.905,56.287 196.300 C 56.378 195.695,56.378 194.705,56.287 194.100 C 56.195 193.495,56.120 193.990,56.120 195.200 M343.720 196.000 C 343.720 197.210,343.795 197.705,343.887 197.100 C 343.978 196.495,343.978 195.505,343.887 194.900 C 343.795 194.295,343.720 194.790,343.720 196.000 M190.259 196.839 C 189.128 198.160,188.002 200.143,188.010 200.800 C 188.014 201.130,188.355 200.657,188.767 199.749 C 189.179 198.841,189.714 197.976,189.956 197.827 C 190.378 197.566,191.361 196.000,191.103 196.000 C 191.034 196.000,190.654 196.378,190.259 196.839 M56.816 200.312 C 56.807 200.594,57.232 201.854,57.761 203.112 C 58.289 204.370,58.807 205.760,58.911 206.200 C 59.014 206.640,59.049 206.449,58.987 205.775 C 58.870 204.504,56.845 199.408,56.816 200.312 M341.900 202.835 C 341.295 204.109,340.800 205.385,340.800 205.670 C 340.800 205.955,341.352 205.057,342.027 203.674 C 342.701 202.291,343.196 201.015,343.127 200.839 C 343.057 200.662,342.505 201.560,341.900 202.835 M340.200 208.400 C 340.045 209.528,340.002 210.536,340.106 210.639 C 340.209 210.742,340.416 209.900,340.567 208.767 C 340.717 207.634,340.759 206.626,340.661 206.528 C 340.563 206.429,340.355 207.272,340.200 208.400 M214.476 208.703 C 214.096 209.974,213.559 210.599,211.986 211.609 L 209.980 212.896 206.290 212.466 C 203.892 212.186,201.060 212.158,198.200 212.385 L 193.800 212.736 198.200 212.607 C 200.620 212.536,204.328 212.670,206.440 212.905 L 210.281 213.333 212.040 212.162 C 213.741 211.030,215.430 208.490,215.114 207.542 C 215.030 207.290,214.743 207.813,214.476 208.703 M59.293 208.800 C 59.293 209.570,59.375 209.885,59.476 209.500 C 59.576 209.115,59.576 208.485,59.476 208.100 C 59.375 207.715,59.293 208.030,59.293 208.800 M186.419 209.800 C 186.365 212.487,188.863 214.257,191.733 213.567 C 192.870 213.293,193.577 212.994,193.303 212.903 C 193.030 212.811,192.186 212.940,191.428 213.191 C 190.241 213.582,187.640 212.971,187.594 212.290 C 187.546 211.582,186.431 209.218,186.419 209.800 M60.228 214.980 C 60.359 215.849,60.978 217.559,61.603 218.780 C 62.228 220.001,62.962 221.766,63.234 222.703 C 63.506 223.639,63.800 224.333,63.888 224.246 C 64.179 223.954,62.723 219.422,61.904 218.070 C 61.461 217.339,60.849 215.989,60.544 215.070 L 59.990 213.400 60.228 214.980 M337.654 218.089 C 337.193 219.040,336.716 220.445,336.594 221.210 C 336.453 222.094,336.654 221.759,337.146 220.289 C 337.572 219.018,338.144 217.709,338.417 217.379 C 338.690 217.050,338.819 216.686,338.703 216.569 C 338.587 216.453,338.115 217.137,337.654 218.089 M64.022 225.400 C 64.017 226.350,65.404 229.520,66.217 230.419 C 66.533 230.768,67.050 231.761,67.367 232.627 C 67.684 233.492,67.956 233.969,67.972 233.687 C 68.014 232.927,66.865 230.335,66.124 229.516 C 65.768 229.123,65.151 227.856,64.752 226.701 C 64.353 225.545,64.024 224.960,64.022 225.400 M335.300 226.943 C 335.035 227.934,334.274 229.602,333.609 230.650 C 332.944 231.699,332.404 232.836,332.409 233.178 C 332.414 233.520,332.755 233.057,333.167 232.149 C 333.579 231.241,334.102 230.384,334.328 230.245 C 334.832 229.933,336.120 226.160,335.923 225.570 C 335.845 225.335,335.564 225.953,335.300 226.943 M331.410 236.753 C 331.264 237.418,330.794 238.408,330.365 238.953 C 329.411 240.166,328.014 243.182,328.027 244.000 C 328.033 244.330,328.368 243.756,328.771 242.724 C 329.175 241.692,329.876 240.375,330.330 239.799 C 331.217 238.670,332.208 236.075,331.878 235.745 C 331.767 235.634,331.557 236.087,331.410 236.753 M68.807 238.114 C 68.803 238.287,69.338 239.367,69.996 240.514 C 70.654 241.661,71.191 242.420,71.189 242.200 C 71.186 241.723,68.817 237.660,68.807 238.114 M71.256 243.200 C 71.256 243.530,71.411 244.160,71.600 244.600 C 71.817 245.104,71.944 245.178,71.944 244.800 C 71.944 244.470,71.789 243.840,71.600 243.400 C 71.383 242.896,71.256 242.822,71.256 243.200 M72.016 245.920 C 71.994 246.627,73.130 248.820,74.026 249.804 C 74.429 250.246,75.201 251.596,75.742 252.804 C 76.282 254.012,77.398 255.720,78.221 256.600 C 79.044 257.480,79.527 257.838,79.296 257.396 C 79.064 256.953,78.479 256.234,77.996 255.796 C 77.513 255.359,76.589 253.835,75.943 252.409 C 75.296 250.983,74.424 249.451,74.005 249.005 C 73.586 248.559,72.970 247.566,72.637 246.797 C 72.304 246.029,72.024 245.634,72.016 245.920 M198.426 247.254 C 195.554 247.731,195.190 248.144,198.007 247.730 C 200.625 247.345,202.316 247.339,205.000 247.705 C 206.903 247.965,206.884 247.950,204.600 247.406 C 201.890 246.761,201.462 246.751,198.426 247.254 M325.488 249.075 C 324.156 250.717,322.867 253.801,323.322 254.256 C 323.419 254.352,323.704 253.610,323.956 252.608 C 324.225 251.539,325.014 250.122,325.864 249.182 C 326.660 248.300,327.236 247.503,327.144 247.410 C 327.051 247.318,326.306 248.067,325.488 249.075 M193.505 248.283 C 194.002 248.379,194.722 248.375,195.105 248.275 C 195.487 248.175,195.080 248.096,194.200 248.101 C 193.320 248.105,193.007 248.187,193.505 248.283 M188.822 249.912 C 185.432 251.606,180.328 259.151,180.419 262.333 C 180.430 262.700,180.712 262.217,181.047 261.261 C 181.382 260.304,182.379 258.342,183.261 256.900 C 184.144 255.457,185.020 253.873,185.208 253.378 C 185.600 252.349,187.736 250.634,189.172 250.196 C 190.320 249.847,192.780 248.398,192.200 248.414 C 191.980 248.419,190.460 249.094,188.822 249.912 M209.400 248.777 C 212.028 249.847,217.816 256.957,218.838 260.370 C 219.108 261.269,219.410 261.924,219.509 261.824 C 220.870 260.464,211.621 248.339,209.288 248.425 C 208.718 248.446,208.737 248.507,209.400 248.777 M321.676 256.047 C 320.974 256.734,320.400 257.484,320.400 257.714 C 320.400 257.945,320.445 258.056,320.500 257.962 C 320.555 257.868,321.220 257.118,321.978 256.296 C 323.649 254.483,323.447 254.316,321.676 256.047 M320.000 258.929 C 320.000 259.293,319.100 260.585,318.000 261.800 C 316.900 263.015,316.000 264.188,316.000 264.408 C 316.000 264.628,316.882 263.834,317.961 262.644 C 319.865 260.540,320.720 258.986,320.237 258.503 C 320.106 258.373,320.000 258.565,320.000 258.929 M80.016 259.720 C 79.983 260.385,81.344 262.598,82.200 263.272 C 82.691 263.657,83.320 264.525,83.600 265.199 C 83.879 265.874,84.188 266.345,84.286 266.247 C 84.568 265.965,83.607 264.312,82.399 263.000 C 81.791 262.340,81.010 261.260,80.663 260.600 C 80.316 259.940,80.025 259.544,80.016 259.720 M219.744 266.400 C 219.744 268.490,219.812 269.345,219.894 268.300 C 219.976 267.255,219.976 265.545,219.894 264.500 C 219.812 263.455,219.744 264.310,219.744 266.400 M180.144 267.200 C 180.144 269.290,180.212 270.145,180.294 269.100 C 180.376 268.055,180.376 266.345,180.294 265.300 C 180.212 264.255,180.144 265.110,180.144 267.200 M315.443 266.169 C 315.310 266.702,314.774 267.647,314.253 268.269 C 313.732 268.891,312.760 270.480,312.093 271.800 C 311.426 273.120,310.396 274.650,309.803 275.200 C 309.211 275.750,308.534 276.560,308.298 277.000 C 308.062 277.440,308.634 276.990,309.568 276.000 C 310.502 275.010,311.721 273.312,312.277 272.226 C 312.833 271.141,313.898 269.365,314.644 268.281 C 315.390 267.197,316.000 266.060,316.000 265.755 C 316.000 264.888,315.711 265.102,315.443 266.169 M85.144 268.278 C 85.397 268.760,85.787 269.269,86.011 269.407 C 86.235 269.545,86.967 270.746,87.638 272.075 C 88.309 273.404,89.340 274.935,89.929 275.476 C 90.518 276.017,91.450 277.328,92.000 278.389 C 93.117 280.543,96.121 284.449,98.700 287.100 C 99.635 288.061,100.400 288.994,100.400 289.174 C 100.400 289.354,102.138 291.278,104.262 293.451 C 108.063 297.337,108.078 297.348,105.205 294.100 C 103.600 292.285,102.136 290.800,101.953 290.800 C 101.770 290.800,101.323 290.215,100.958 289.500 C 100.594 288.785,99.465 287.286,98.448 286.168 C 95.010 282.388,93.300 280.171,92.288 278.182 C 91.733 277.092,90.798 275.751,90.210 275.203 C 89.622 274.654,88.510 273.004,87.738 271.535 C 86.967 270.067,85.964 268.536,85.509 268.133 C 84.698 267.413,84.692 267.416,85.144 268.278 M218.832 272.862 C 218.814 273.226,218.170 274.278,217.400 275.200 C 216.630 276.122,216.000 277.065,216.000 277.297 C 216.000 277.529,216.444 277.107,216.987 276.359 C 217.529 275.612,218.266 274.601,218.624 274.113 C 218.982 273.625,219.182 272.995,219.069 272.713 C 218.934 272.376,218.852 272.427,218.832 272.862 M180.800 273.909 C 180.800 274.145,181.223 274.847,181.741 275.469 C 182.258 276.091,183.180 277.410,183.789 278.400 C 185.243 280.764,186.722 282.331,188.200 283.077 C 189.379 283.671,189.375 283.660,188.000 282.457 C 187.230 281.784,186.483 281.225,186.339 281.216 C 186.195 281.207,185.395 280.165,184.560 278.900 C 182.112 275.191,180.800 273.450,180.800 273.909 M213.085 280.780 C 210.750 283.101,210.065 283.548,208.195 283.966 C 206.998 284.234,205.160 284.921,204.110 285.492 C 201.294 287.025,198.287 286.961,194.459 285.287 C 192.841 284.579,191.311 284.004,191.059 284.008 C 190.806 284.012,192.262 284.732,194.292 285.608 C 199.031 287.651,200.700 287.688,204.558 285.835 C 206.121 285.084,208.099 284.340,208.953 284.181 C 210.357 283.919,216.000 279.176,216.000 278.258 C 216.000 277.879,216.026 277.856,213.085 280.780 M307.600 278.387 C 307.600 278.599,306.835 279.656,305.900 280.736 C 304.965 281.815,303.120 284.199,301.800 286.034 C 299.573 289.129,298.008 291.067,294.117 295.546 C 293.283 296.506,291.070 298.784,289.200 300.607 C 287.330 302.431,285.440 304.307,285.000 304.778 C 284.560 305.248,283.570 306.286,282.800 307.084 C 281.827 308.092,281.671 308.390,282.286 308.061 C 282.774 307.800,283.494 307.115,283.886 306.539 C 284.279 305.964,285.028 305.112,285.551 304.646 C 287.101 303.267,290.953 299.625,291.600 298.926 C 297.244 292.834,300.181 289.242,303.477 284.400 C 304.301 283.190,305.655 281.439,306.487 280.509 C 307.842 278.995,308.362 278.000,307.800 278.000 C 307.690 278.000,307.600 278.174,307.600 278.387 M109.881 300.037 C 110.806 301.007,112.032 302.340,112.605 303.000 C 113.394 303.908,113.343 303.763,112.397 302.402 C 111.709 301.414,110.483 300.081,109.673 299.440 C 108.206 298.280,108.207 298.282,109.881 300.037 M114.800 305.003 C 116.767 307.355,124.143 314.406,125.200 314.945 C 125.530 315.113,125.010 314.564,124.044 313.725 C 123.079 312.886,120.379 310.311,118.044 308.003 C 115.710 305.695,114.250 304.345,114.800 305.003 M279.584 310.286 C 278.884 311.323,278.592 311.939,278.935 311.654 C 279.563 311.133,281.310 308.400,281.015 308.400 C 280.928 308.400,280.284 309.249,279.584 310.286 M276.581 313.058 C 276.041 313.641,275.600 314.266,275.600 314.448 C 275.600 314.630,275.015 315.075,274.300 315.437 C 273.585 315.798,272.100 316.971,271.000 318.043 C 269.900 319.115,267.830 321.131,266.400 322.523 C 262.820 326.008,260.404 327.883,259.062 328.220 C 258.438 328.377,257.123 329.201,256.139 330.052 C 255.156 330.904,254.152 331.600,253.909 331.600 C 253.666 331.600,253.581 331.714,253.721 331.854 C 254.040 332.173,256.028 330.904,256.714 329.944 C 256.997 329.548,257.959 329.005,258.851 328.737 C 260.559 328.226,264.593 324.898,270.061 319.489 C 271.745 317.823,273.653 316.186,274.302 315.851 C 274.950 315.515,275.809 314.737,276.211 314.120 C 276.612 313.504,277.223 312.781,277.570 312.513 C 277.916 312.245,278.056 312.020,277.881 312.013 C 277.705 312.006,277.120 312.476,276.581 313.058 M126.512 315.639 C 126.903 315.866,127.667 316.756,128.209 317.615 C 128.752 318.474,129.711 319.444,130.341 319.770 C 130.971 320.095,133.049 321.875,134.958 323.725 C 136.867 325.575,139.367 327.570,140.514 328.158 C 142.650 329.254,142.455 329.071,139.316 327.036 C 138.328 326.396,136.143 324.504,134.460 322.833 C 132.777 321.161,130.912 319.577,130.316 319.313 C 129.720 319.048,128.873 318.127,128.433 317.265 C 127.994 316.404,127.342 315.586,126.984 315.449 C 125.988 315.067,125.716 315.176,126.512 315.639 M142.800 329.441 C 142.800 330.062,144.382 331.400,146.200 332.316 C 147.080 332.759,148.250 333.608,148.800 334.201 C 149.350 334.795,150.790 335.782,152.000 336.396 C 153.210 337.010,154.560 337.911,155.000 338.399 C 155.440 338.886,156.520 339.650,157.400 340.095 C 158.280 340.541,159.647 341.467,160.439 342.153 C 161.230 342.839,162.760 343.900,163.839 344.510 C 164.917 345.121,166.412 346.066,167.159 346.610 C 167.907 347.155,168.717 347.593,168.959 347.584 C 169.202 347.575,168.860 347.284,168.200 346.936 C 167.540 346.589,166.550 345.896,166.000 345.395 C 165.450 344.895,164.077 344.025,162.950 343.462 C 161.822 342.898,160.807 342.194,160.693 341.897 C 160.579 341.600,159.431 340.792,158.143 340.102 C 156.854 339.412,155.492 338.483,155.116 338.038 C 154.739 337.592,153.389 336.699,152.116 336.054 C 150.842 335.408,149.350 334.394,148.800 333.800 C 148.250 333.207,146.958 332.292,145.928 331.768 C 144.898 331.244,143.773 330.411,143.428 329.918 C 143.083 329.425,142.800 329.211,142.800 329.441 M251.129 333.211 C 250.637 333.877,249.468 334.870,248.532 335.419 C 247.596 335.967,246.018 337.119,245.026 337.978 C 244.033 338.837,242.843 339.659,242.381 339.806 C 241.918 339.953,241.627 340.160,241.733 340.266 C 242.017 340.550,244.167 339.363,244.829 338.558 C 245.143 338.176,246.627 337.067,248.127 336.095 C 249.626 335.122,250.953 334.068,251.074 333.751 C 251.195 333.435,251.769 332.918,252.347 332.604 C 253.099 332.195,253.203 332.027,252.712 332.016 C 252.334 332.007,251.621 332.545,251.129 333.211 M239.301 341.748 C 238.476 342.490,236.810 343.593,235.600 344.201 C 234.390 344.809,232.827 345.806,232.128 346.416 C 231.428 347.027,229.845 347.821,228.610 348.180 C 227.375 348.539,226.057 349.207,225.682 349.663 C 225.307 350.120,224.460 350.832,223.800 351.245 C 223.140 351.659,222.824 351.998,223.099 351.999 C 223.373 351.999,224.273 351.391,225.099 350.648 C 225.924 349.904,227.487 348.995,228.571 348.628 C 230.796 347.875,232.800 346.781,232.800 346.319 C 232.800 346.149,234.015 345.394,235.500 344.640 C 237.794 343.476,241.822 340.400,241.051 340.400 C 240.914 340.400,240.127 341.007,239.301 341.748 M172.227 348.918 C 173.122 349.403,174.489 350.295,175.265 350.900 C 176.041 351.505,176.807 352.000,176.968 352.000 C 177.401 352.000,173.857 349.354,172.451 348.626 C 170.585 347.661,170.387 347.921,172.227 348.918 M179.000 352.936 C 179.880 353.446,181.300 354.344,182.156 354.932 C 183.012 355.519,183.912 355.993,184.156 355.984 C 184.400 355.975,184.060 355.683,183.400 355.335 C 182.740 354.987,181.840 354.386,181.400 353.998 C 180.540 353.241,178.244 351.997,177.720 352.005 C 177.544 352.007,178.120 352.427,179.000 352.936 M219.244 353.301 C 218.498 353.796,217.238 354.616,216.444 355.125 C 215.312 355.850,215.216 355.991,216.000 355.779 C 216.550 355.629,217.619 355.033,218.375 354.454 C 219.131 353.874,220.121 353.181,220.575 352.914 C 221.029 352.647,221.220 352.423,221.000 352.416 C 220.780 352.409,219.990 352.807,219.244 353.301 M186.600 356.800 C 187.040 356.989,187.670 357.144,188.000 357.144 C 188.378 357.144,188.304 357.017,187.800 356.800 C 187.360 356.611,186.730 356.456,186.400 356.456 C 186.022 356.456,186.096 356.583,186.600 356.800 M211.000 356.882 C 210.340 357.113,209.400 357.665,208.912 358.110 C 208.423 358.554,207.163 359.165,206.112 359.466 C 204.260 359.998,204.250 360.009,205.787 359.819 C 206.660 359.711,207.908 359.227,208.561 358.744 C 209.214 358.261,210.570 357.545,211.574 357.152 C 213.510 356.394,213.035 356.172,211.000 356.882 M191.000 358.400 C 192.433 359.115,193.964 359.577,194.800 359.548 L 196.200 359.500 194.600 359.224 C 193.720 359.073,192.242 358.555,191.316 358.074 C 190.390 357.593,189.400 357.201,189.116 357.202 C 188.832 357.202,189.680 357.742,191.000 358.400 M201.105 360.283 C 201.602 360.379,202.322 360.375,202.705 360.275 C 203.087 360.175,202.680 360.096,201.800 360.101 C 200.920 360.105,200.607 360.187,201.105 360.283 " stroke="none" fill="#7c7cc0" fill-rule="evenodd"></path><path id="path3" d="M174.415 40.422 C 165.159 40.973,160.862 41.415,153.800 42.543 C 147.161 43.604,138.376 44.396,133.221 44.398 C 129.392 44.400,124.105 45.096,120.800 46.032 C 116.859 47.149,116.863 47.149,106.708 48.170 C 98.817 48.964,96.985 49.268,95.846 49.971 C 94.791 50.623,92.929 51.000,87.738 51.611 C 77.000 52.875,76.144 53.049,73.215 54.565 C 71.714 55.341,69.702 56.083,68.743 56.214 C 65.675 56.630,65.312 56.770,63.632 58.173 C 62.725 58.931,61.645 59.659,61.234 59.789 C 60.823 59.920,60.254 60.606,59.971 61.313 C 59.688 62.021,58.859 63.276,58.128 64.101 C 57.288 65.051,56.800 66.020,56.800 66.739 C 56.800 67.988,55.883 70.797,54.170 74.800 L 53.057 77.400 53.033 122.600 C 53.011 164.255,53.065 168.098,53.719 171.600 C 55.152 179.265,55.591 182.748,55.990 189.600 C 56.492 198.220,56.629 199.102,58.009 202.600 C 58.696 204.342,59.356 207.211,59.754 210.191 C 60.261 213.982,60.679 215.568,61.756 217.791 C 62.505 219.336,63.525 222.181,64.023 224.113 C 64.549 226.157,65.473 228.472,66.232 229.650 C 67.038 230.901,67.793 232.843,68.208 234.737 C 68.578 236.422,69.385 238.700,70.002 239.800 C 70.619 240.900,71.506 243.098,71.974 244.684 C 72.442 246.270,73.274 248.103,73.825 248.757 C 74.375 249.411,75.342 251.084,75.972 252.474 C 76.602 253.864,77.521 255.362,78.014 255.801 C 78.506 256.240,79.436 257.770,80.079 259.200 C 80.722 260.630,81.769 262.340,82.404 263.000 C 83.040 263.660,83.859 264.918,84.225 265.797 C 84.592 266.675,85.332 267.917,85.870 268.556 C 86.408 269.196,87.360 270.727,87.984 271.960 C 88.609 273.192,89.606 274.650,90.200 275.200 C 90.793 275.750,91.733 277.092,92.288 278.182 C 93.300 280.171,95.010 282.388,98.448 286.168 C 99.465 287.286,100.594 288.785,100.958 289.500 C 101.323 290.215,101.776 290.800,101.965 290.800 C 102.154 290.800,103.669 292.375,105.330 294.300 C 114.053 304.408,124.448 314.654,126.707 315.371 C 127.206 315.529,127.981 316.379,128.430 317.259 C 128.965 318.308,129.714 319.056,130.600 319.426 C 131.344 319.736,132.423 320.607,132.997 321.361 C 134.304 323.074,138.944 326.963,141.230 328.262 C 142.178 328.800,143.201 329.595,143.504 330.028 C 143.808 330.461,144.898 331.244,145.928 331.768 C 146.958 332.292,148.250 333.207,148.800 333.800 C 149.350 334.394,150.842 335.408,152.116 336.054 C 153.389 336.699,154.739 337.592,155.116 338.038 C 155.492 338.483,156.854 339.412,158.143 340.102 C 159.431 340.792,160.579 341.600,160.693 341.897 C 160.807 342.194,161.822 342.903,162.950 343.471 C 164.077 344.040,165.564 344.998,166.254 345.600 C 166.944 346.202,168.779 347.181,170.333 347.774 C 171.887 348.368,173.842 349.399,174.679 350.066 C 175.515 350.733,177.280 351.800,178.600 352.439 C 179.920 353.077,181.612 354.050,182.361 354.601 C 183.109 355.152,184.999 355.967,186.561 356.411 C 188.122 356.856,190.210 357.602,191.200 358.069 C 196.318 360.481,205.941 360.544,208.746 358.184 C 209.364 357.664,211.130 356.890,212.671 356.463 C 215.772 355.603,217.600 354.763,218.358 353.850 C 218.633 353.519,220.081 352.780,221.576 352.209 C 223.139 351.612,224.738 350.673,225.338 349.999 C 225.998 349.258,227.203 348.589,228.618 348.177 C 229.848 347.820,231.428 347.027,232.128 346.416 C 232.827 345.804,234.480 344.761,235.800 344.096 C 237.120 343.431,238.560 342.488,239.000 342.001 C 239.440 341.513,240.700 340.660,241.800 340.105 C 242.900 339.550,244.453 338.510,245.250 337.794 C 246.048 337.078,247.495 336.026,248.467 335.457 C 249.439 334.887,250.618 333.902,251.088 333.267 C 251.557 332.631,252.474 332.005,253.124 331.875 C 253.774 331.745,255.121 330.934,256.117 330.072 C 257.113 329.210,258.438 328.377,259.062 328.220 C 260.404 327.883,262.820 326.008,266.400 322.523 C 267.830 321.131,269.900 319.115,271.000 318.043 C 272.100 316.971,273.546 315.818,274.214 315.481 C 274.882 315.144,275.686 314.388,276.000 313.800 C 276.314 313.212,277.086 312.466,277.714 312.141 C 278.342 311.816,279.218 310.937,279.660 310.188 C 280.102 309.439,281.091 308.438,281.857 307.965 C 282.624 307.491,283.692 306.405,284.231 305.552 C 284.769 304.698,285.363 304.000,285.549 304.000 C 286.704 304.000,297.369 292.202,301.800 286.023 C 303.120 284.182,304.852 281.938,305.648 281.038 C 306.445 280.137,307.462 278.680,307.909 277.800 C 308.356 276.920,309.208 275.750,309.802 275.200 C 310.395 274.650,311.478 273.020,312.207 271.577 C 312.936 270.134,313.811 268.723,314.151 268.441 C 314.491 268.158,315.149 266.914,315.612 265.676 C 316.093 264.391,317.195 262.633,318.181 261.579 C 319.130 260.564,320.032 259.165,320.185 258.470 C 320.337 257.775,321.078 256.625,321.831 255.915 C 322.584 255.205,323.201 254.439,323.202 254.212 C 323.210 252.859,324.223 250.617,325.557 249.003 C 326.589 247.754,327.367 246.200,327.929 244.267 C 328.389 242.685,329.300 240.583,329.954 239.595 C 330.607 238.608,331.513 236.463,331.966 234.828 C 332.418 233.193,333.213 231.213,333.732 230.428 C 334.894 228.669,335.414 227.104,336.182 223.053 C 336.511 221.321,337.314 218.801,337.968 217.453 C 338.777 215.782,339.418 213.430,339.976 210.078 C 340.538 206.711,341.177 204.367,342.001 202.659 C 343.268 200.031,343.274 199.995,344.396 186.000 C 344.634 183.030,345.318 177.810,345.915 174.400 L 347.000 168.200 346.984 123.200 L 346.968 78.200 346.091 75.800 C 343.829 69.614,343.220 67.734,343.210 66.909 C 343.198 65.871,339.007 61.416,335.436 58.644 C 332.146 56.090,322.422 52.939,315.425 52.158 C 309.865 51.538,307.139 51.011,304.126 49.974 C 301.227 48.977,298.236 48.461,292.754 48.011 C 284.363 47.322,280.220 46.773,277.299 45.963 C 272.303 44.576,270.114 44.348,258.400 43.995 C 251.204 43.778,245.894 43.430,244.000 43.050 C 237.936 41.834,234.102 41.219,230.000 40.807 C 224.424 40.247,182.265 39.955,174.415 40.422 M228.126 41.597 C 230.561 41.885,231.997 42.270,232.767 42.839 C 234.452 44.084,238.053 44.409,252.373 44.605 C 266.326 44.795,269.800 45.104,274.772 46.592 C 276.530 47.118,279.191 47.654,280.684 47.782 C 297.510 49.229,299.194 49.457,301.467 50.593 C 303.279 51.498,308.026 52.331,313.941 52.781 C 319.347 53.192,320.006 53.335,321.600 54.438 C 322.150 54.819,323.779 55.325,325.220 55.563 C 331.146 56.541,337.147 59.982,338.906 63.411 C 339.362 64.299,340.104 65.017,340.827 65.269 C 341.627 65.548,342.071 66.020,342.212 66.740 C 342.326 67.323,342.800 69.150,343.266 70.800 C 346.130 80.949,345.889 76.297,345.958 122.800 C 346.011 158.609,345.934 165.044,345.417 167.701 C 344.569 172.058,343.671 181.264,343.216 190.280 C 342.821 198.100,342.636 198.984,340.808 201.818 C 340.278 202.639,339.879 204.337,339.584 207.018 C 338.972 212.581,338.527 214.321,337.210 216.311 C 336.579 217.263,335.967 218.707,335.849 219.521 C 334.929 225.872,334.678 226.847,333.510 228.611 C 332.836 229.628,331.848 232.010,331.315 233.905 C 330.781 235.800,329.923 237.851,329.408 238.463 C 328.509 239.532,327.726 241.525,326.818 245.056 C 326.560 246.061,326.002 246.969,325.401 247.362 C 324.215 248.140,323.015 250.400,322.622 252.600 C 322.447 253.583,321.951 254.512,321.336 255.008 C 320.786 255.453,319.855 256.803,319.268 258.008 C 318.490 259.604,317.946 260.236,317.266 260.332 C 316.216 260.481,315.462 261.954,314.999 264.761 C 314.831 265.785,314.331 266.874,313.808 267.361 C 313.312 267.823,312.265 269.476,311.480 271.036 C 310.696 272.596,309.581 274.183,309.002 274.562 C 308.423 274.941,307.619 276.023,307.215 276.965 C 306.811 277.908,306.041 279.025,305.503 279.447 C 304.966 279.870,304.055 280.962,303.479 281.874 C 302.904 282.786,302.244 283.649,302.014 283.792 C 301.783 283.934,300.751 285.344,299.720 286.925 C 298.689 288.506,297.443 290.118,296.952 290.507 C 296.460 290.895,295.697 291.795,295.257 292.507 C 294.549 293.652,291.807 296.842,290.243 298.340 C 289.138 299.400,286.854 301.666,286.530 302.026 C 286.348 302.228,285.638 302.840,284.952 303.388 C 284.265 303.936,283.485 304.912,283.218 305.558 C 282.942 306.222,282.211 306.947,281.531 307.229 C 280.871 307.502,279.897 308.412,279.367 309.251 C 278.838 310.091,277.885 311.046,277.250 311.374 C 276.616 311.702,275.724 312.602,275.269 313.372 C 274.756 314.242,274.016 314.875,273.321 315.040 C 272.030 315.345,270.400 316.696,270.400 317.461 C 270.400 317.747,269.905 318.296,269.300 318.679 C 268.695 319.063,266.373 321.095,264.141 323.193 C 261.652 325.533,259.486 327.219,258.541 327.550 C 257.693 327.847,256.370 328.687,255.600 329.416 C 254.786 330.186,253.577 330.854,252.712 331.012 C 251.349 331.262,249.200 332.863,249.200 333.630 C 249.200 333.807,248.164 334.590,246.899 335.371 C 245.633 336.153,244.379 337.142,244.112 337.569 C 243.845 337.997,242.470 338.898,241.056 339.573 C 239.642 340.248,238.380 341.074,238.252 341.409 C 238.123 341.745,236.657 342.647,234.994 343.415 C 233.331 344.184,231.865 345.086,231.737 345.421 C 231.434 346.211,229.777 347.055,227.807 347.425 C 226.735 347.626,225.685 348.268,224.473 349.462 C 223.234 350.684,222.249 351.279,221.182 351.449 C 219.707 351.685,218.890 352.123,216.055 354.197 C 215.316 354.738,214.056 355.292,213.255 355.428 C 210.200 355.948,208.776 356.461,207.751 357.410 C 205.251 359.727,196.119 359.769,192.739 357.478 C 192.156 357.083,190.209 356.408,188.412 355.979 C 184.835 355.125,184.085 354.799,182.000 353.190 C 181.230 352.595,179.807 351.805,178.839 351.433 C 177.870 351.062,176.370 350.152,175.506 349.412 C 174.605 348.641,172.891 347.754,171.491 347.335 C 169.995 346.887,168.515 346.100,167.673 345.306 C 166.916 344.592,165.285 343.519,164.049 342.921 C 162.812 342.322,161.557 341.500,161.261 341.093 C 160.964 340.685,159.763 339.898,158.591 339.344 C 157.419 338.789,156.365 338.086,156.249 337.783 C 156.132 337.479,154.924 336.668,153.565 335.982 C 152.205 335.296,150.442 334.101,149.646 333.326 C 148.851 332.552,147.523 331.646,146.695 331.313 C 145.867 330.981,144.831 330.205,144.392 329.589 C 143.953 328.973,142.816 328.092,141.864 327.631 C 140.178 326.815,135.007 322.058,133.398 319.843 C 132.912 319.174,132.046 318.627,131.198 318.455 C 130.066 318.225,129.776 317.967,129.674 317.095 C 129.543 315.967,127.923 314.400,126.890 314.400 C 125.873 314.400,113.863 303.130,112.296 300.706 C 111.909 300.107,111.075 299.349,110.443 299.022 C 109.771 298.675,109.179 297.965,109.017 297.314 C 108.712 296.084,107.317 294.400,106.604 294.400 C 106.353 294.400,105.853 293.782,105.493 293.026 C 105.133 292.270,104.271 291.235,103.579 290.726 C 102.886 290.217,101.996 289.170,101.599 288.400 C 101.203 287.630,100.006 286.079,98.939 284.953 C 95.257 281.064,93.227 278.485,92.581 276.869 C 92.224 275.977,91.491 274.959,90.952 274.605 C 90.413 274.252,89.356 272.699,88.605 271.154 C 87.853 269.609,86.786 267.989,86.234 267.555 C 85.659 267.103,85.115 266.154,84.962 265.336 C 84.801 264.481,83.999 263.125,82.965 261.961 C 82.014 260.890,81.018 259.285,80.751 258.395 C 80.294 256.869,78.688 254.800,77.961 254.800 C 77.779 254.800,77.425 254.035,77.173 253.100 C 76.555 250.802,75.730 249.234,74.384 247.800 C 73.613 246.979,73.007 245.612,72.462 243.469 C 72.024 241.747,71.212 239.677,70.657 238.869 C 69.688 237.458,69.426 236.601,68.399 231.480 C 68.057 229.777,67.592 228.819,66.648 227.874 C 65.587 226.814,65.272 226.064,64.848 223.594 C 64.048 218.938,63.649 217.694,62.586 216.547 C 61.353 215.217,60.981 213.828,60.237 207.790 C 59.595 202.580,59.423 201.912,58.334 200.400 C 57.441 199.160,56.818 194.964,56.808 190.122 C 56.797 184.889,56.127 177.279,54.985 169.400 L 54.000 162.600 54.135 120.800 L 54.270 79.000 55.772 74.400 C 56.598 71.870,57.371 68.871,57.489 67.737 C 57.664 66.062,57.920 65.514,58.852 64.825 C 59.483 64.359,60.251 63.373,60.560 62.635 C 60.880 61.868,61.902 60.756,62.945 60.038 C 63.949 59.347,64.912 58.554,65.085 58.276 C 65.258 57.997,66.750 57.546,68.400 57.273 C 70.271 56.963,72.605 56.187,74.600 55.211 C 78.346 53.380,78.325 53.384,88.241 52.455 C 94.719 51.848,96.066 51.608,97.094 50.875 C 98.490 49.881,103.230 49.115,112.400 48.402 C 117.943 47.970,123.965 46.933,127.400 45.818 C 128.313 45.522,132.177 45.186,136.400 45.035 C 147.091 44.654,155.389 44.021,158.600 43.341 C 162.593 42.495,169.150 41.639,174.871 41.217 C 181.219 40.747,223.503 41.049,228.126 41.597 M193.865 92.353 C 190.755 92.553,189.822 92.755,189.412 93.316 C 189.060 93.797,187.587 94.279,184.835 94.812 C 180.322 95.687,178.479 96.340,177.629 97.364 C 176.889 98.257,175.177 99.131,172.766 99.847 C 171.704 100.163,170.725 100.598,170.592 100.814 C 170.327 101.241,165.570 104.937,162.313 107.246 C 161.190 108.041,159.762 109.391,159.138 110.246 C 156.918 113.288,154.808 116.607,154.804 117.062 C 154.802 117.316,154.173 118.275,153.407 119.192 C 152.147 120.700,150.811 123.960,150.793 125.573 C 150.789 125.918,150.249 126.992,149.593 127.960 C 148.937 128.928,148.398 130.188,148.395 130.760 C 148.393 131.332,148.123 132.790,147.796 134.000 C 146.978 137.021,145.899 145.453,146.206 146.419 C 146.802 148.296,148.200 148.509,159.885 148.500 C 171.945 148.491,172.130 148.456,173.444 145.916 C 173.807 145.214,174.337 144.405,174.623 144.120 C 174.909 143.834,175.345 142.565,175.593 141.300 C 176.452 136.910,177.611 133.622,178.460 133.168 C 178.908 132.928,179.608 131.980,180.014 131.062 C 180.845 129.182,185.607 124.800,186.818 124.800 C 187.868 124.800,191.529 123.314,192.649 122.433 C 195.363 120.298,203.935 120.399,208.618 122.621 C 210.254 123.398,212.322 124.290,213.215 124.605 C 215.221 125.313,219.417 128.901,219.919 130.337 C 220.123 130.922,220.832 131.940,221.493 132.600 C 222.753 133.856,223.566 136.049,224.380 140.384 C 224.647 141.805,225.141 143.499,225.477 144.149 C 226.241 145.626,225.894 149.456,224.803 151.594 C 224.395 152.394,223.762 154.207,223.396 155.624 C 222.926 157.440,222.357 158.564,221.465 159.435 C 220.769 160.114,219.840 161.279,219.399 162.024 C 218.959 162.768,218.187 163.582,217.685 163.832 C 217.183 164.083,216.253 165.106,215.618 166.107 C 214.984 167.107,214.098 168.042,213.649 168.185 C 213.200 168.327,212.278 169.144,211.600 170.000 C 210.922 170.856,210.008 171.671,209.569 171.810 C 209.129 171.949,208.328 172.764,207.787 173.620 C 207.247 174.477,206.256 175.461,205.585 175.808 C 204.914 176.155,204.199 176.878,203.994 177.415 C 203.790 177.952,202.922 178.888,202.066 179.496 C 201.209 180.103,200.119 181.274,199.643 182.098 C 199.168 182.922,198.324 183.893,197.769 184.257 C 197.214 184.621,196.498 185.424,196.179 186.041 C 195.859 186.659,194.705 188.057,193.613 189.149 C 192.203 190.559,191.498 191.652,191.177 192.925 C 190.892 194.057,190.151 195.314,189.163 196.342 C 188.303 197.237,187.600 198.111,187.600 198.285 C 187.599 200.707,185.909 208.245,185.197 209.003 L 184.344 209.911 185.537 212.276 C 187.225 215.618,189.262 216.392,192.316 214.851 C 194.622 213.687,202.645 213.327,206.707 214.204 L 209.824 214.878 212.279 213.439 C 214.707 212.016,214.746 211.965,215.799 208.804 C 217.174 204.674,219.777 201.324,224.350 197.800 C 227.106 195.676,232.800 190.197,232.800 189.670 C 232.800 189.439,233.538 188.837,234.439 188.330 C 235.341 187.823,236.330 186.922,236.637 186.328 C 236.944 185.734,237.702 184.949,238.320 184.584 C 238.938 184.218,239.870 183.116,240.391 182.134 C 240.912 181.152,241.847 180.086,242.468 179.765 C 243.172 179.401,244.052 178.282,244.800 176.800 C 245.559 175.297,246.426 174.200,247.152 173.825 C 248.318 173.222,248.798 172.478,248.802 171.267 C 248.807 169.752,249.718 167.494,250.838 166.218 C 252.206 164.660,252.794 161.975,252.798 157.277 C 252.799 155.669,253.000 153.062,253.245 151.483 C 253.689 148.620,253.616 147.210,252.370 134.600 C 251.835 129.188,251.726 128.749,250.576 127.411 C 250.027 126.772,249.477 125.788,249.353 125.225 C 248.769 122.557,247.870 120.376,246.937 119.370 C 246.375 118.763,245.593 117.531,245.200 116.633 C 244.808 115.735,243.732 114.280,242.809 113.400 C 241.887 112.520,240.786 111.129,240.362 110.308 C 239.939 109.488,239.062 108.542,238.414 108.207 C 237.766 107.872,236.643 106.859,235.918 105.956 C 235.188 105.045,233.619 103.817,232.400 103.200 C 231.190 102.588,229.861 101.712,229.446 101.252 C 229.031 100.793,227.697 100.045,226.482 99.590 C 225.266 99.135,223.716 98.294,223.036 97.721 C 221.274 96.235,219.761 95.692,215.462 95.000 C 213.317 94.655,210.663 93.916,209.338 93.295 C 206.758 92.087,202.270 91.813,193.865 92.353 M206.013 93.805 C 208.907 94.606,212.734 95.423,216.311 96.004 C 218.551 96.367,219.763 96.837,221.563 98.039 C 222.850 98.898,224.689 99.878,225.651 100.216 C 226.613 100.555,228.034 101.340,228.808 101.961 C 229.583 102.582,231.003 103.492,231.966 103.982 C 232.928 104.473,234.432 105.663,235.309 106.627 C 236.186 107.591,237.243 108.487,237.658 108.618 C 238.073 108.750,239.062 109.880,239.857 111.129 C 240.651 112.378,242.088 114.247,243.050 115.283 C 244.013 116.318,244.800 117.416,244.800 117.723 C 244.800 118.029,245.359 119.052,246.043 119.995 C 246.726 120.939,247.691 122.901,248.186 124.355 C 248.681 125.810,249.534 127.659,250.081 128.464 C 252.880 132.585,253.091 160.412,250.354 164.544 C 249.696 165.537,248.810 167.576,248.385 169.075 C 247.912 170.744,247.249 172.110,246.675 172.600 C 246.160 173.040,245.145 174.390,244.420 175.600 C 242.386 178.994,233.204 188.801,227.326 193.856 C 226.267 194.767,224.095 196.628,222.500 197.992 C 220.905 199.355,219.600 200.616,219.600 200.794 C 219.600 200.971,218.789 201.975,217.797 203.025 C 216.442 204.459,215.797 205.594,215.202 207.592 C 213.823 212.223,211.650 213.522,206.331 212.898 C 201.791 212.365,195.472 212.623,192.114 213.478 C 189.246 214.208,188.140 213.804,187.005 211.610 C 185.780 209.241,187.858 199.643,190.184 196.927 C 190.563 196.485,191.291 195.094,191.802 193.837 C 192.313 192.579,193.601 190.578,194.665 189.390 C 195.729 188.202,197.410 186.227,198.400 185.002 C 200.682 182.176,213.088 169.628,214.540 168.676 C 215.140 168.283,215.929 167.337,216.293 166.575 C 216.656 165.812,217.536 164.845,218.247 164.425 C 218.959 164.005,219.856 163.153,220.242 162.531 C 220.627 161.909,221.521 160.770,222.229 160.000 C 222.979 159.183,223.776 157.678,224.144 156.385 C 224.490 155.167,225.224 153.322,225.775 152.285 C 227.263 149.487,227.507 146.025,226.428 143.000 C 225.958 141.680,225.135 139.077,224.601 137.215 C 224.066 135.353,223.256 133.373,222.799 132.815 C 222.343 132.257,221.662 131.260,221.285 130.600 C 220.205 128.708,215.542 124.449,214.000 123.946 C 213.230 123.695,211.345 122.862,209.811 122.095 C 204.562 119.470,191.928 119.795,189.587 122.615 C 189.327 122.929,188.110 123.503,186.884 123.889 C 184.504 124.640,180.839 127.591,179.805 129.591 C 179.499 130.182,178.630 131.406,177.874 132.311 C 176.899 133.478,176.239 134.923,175.603 137.278 C 174.577 141.084,171.943 146.600,170.904 147.120 C 169.783 147.682,149.573 147.464,148.517 146.879 C 146.374 145.692,147.606 133.209,150.310 128.709 C 150.743 127.989,151.482 126.107,151.952 124.527 C 152.422 122.946,153.231 121.146,153.750 120.527 C 154.268 119.907,155.157 118.481,155.724 117.357 C 156.292 116.233,157.184 114.793,157.708 114.157 C 158.232 113.521,159.244 112.139,159.958 111.087 C 160.672 110.036,161.932 108.748,162.759 108.226 C 163.586 107.704,165.082 106.584,166.082 105.738 C 169.437 102.902,172.183 101.077,174.422 100.195 C 175.644 99.714,177.603 98.661,178.775 97.855 C 181.072 96.275,181.118 96.259,185.600 95.584 C 187.250 95.335,189.680 94.844,191.000 94.492 C 195.851 93.200,202.696 92.887,206.013 93.805 M200.400 245.193 C 199.443 245.800,194.886 247.071,191.276 247.737 C 187.224 248.485,184.424 250.343,183.388 252.971 C 183.035 253.867,182.295 255.258,181.745 256.062 C 178.530 260.757,178.439 274.140,181.602 277.001 C 182.088 277.440,182.833 278.482,183.259 279.317 C 184.585 281.915,186.835 283.813,189.729 284.777 C 191.174 285.257,192.771 285.971,193.278 286.361 C 196.098 288.535,201.666 288.662,205.800 286.647 C 207.340 285.897,209.321 284.986,210.202 284.624 C 212.059 283.862,215.750 280.451,216.674 278.642 C 217.023 277.959,217.900 276.741,218.621 275.936 C 220.172 274.205,220.606 271.969,220.588 265.800 C 220.567 258.493,219.850 256.802,214.398 251.207 C 211.251 247.978,210.572 247.617,206.042 246.758 C 204.537 246.473,203.224 245.970,202.853 245.536 C 202.159 244.726,201.321 244.609,200.400 245.193 M206.234 247.720 L 210.268 248.632 213.077 251.416 C 220.196 258.470,222.563 270.134,217.891 275.131 C 217.341 275.719,216.583 276.830,216.206 277.600 C 215.085 279.892,210.704 283.854,208.924 284.186 C 208.086 284.342,206.121 285.084,204.558 285.835 C 200.919 287.583,198.903 287.625,195.267 286.031 C 193.800 285.387,191.562 284.474,190.294 284.000 C 186.754 282.677,184.296 280.046,181.000 274.055 C 179.802 271.877,179.855 262.630,181.079 260.000 C 184.952 251.684,188.032 248.958,194.734 247.916 C 196.200 247.688,198.120 247.366,199.000 247.201 C 201.532 246.725,201.968 246.756,206.234 247.720 " stroke="none" fill="#7474bc" fill-rule="evenodd"></path><path id="path4" d="M164.200 39.621 C 157.173 39.947,151.942 40.572,149.429 41.385 C 145.542 42.643,140.591 43.177,129.000 43.587 C 119.986 43.906,117.789 44.234,116.347 45.476 C 115.505 46.202,112.294 46.673,103.400 47.376 C 97.939 47.807,95.476 48.184,93.200 48.939 C 88.404 50.529,87.348 50.734,80.722 51.362 C 74.468 51.954,73.388 52.254,71.200 54.006 C 70.609 54.479,68.910 55.031,67.046 55.355 C 64.402 55.815,63.705 56.105,62.726 57.152 C 62.049 57.877,61.158 58.400,60.602 58.400 C 59.495 58.400,58.400 59.750,58.400 61.116 C 58.400 61.670,57.827 62.595,57.000 63.374 C 56.015 64.303,55.600 65.044,55.600 65.875 C 55.600 67.634,54.472 71.099,53.639 71.898 C 51.725 73.736,51.807 71.655,51.683 121.200 C 51.558 170.879,51.674 174.872,53.385 180.114 C 54.149 182.456,54.515 184.952,54.992 191.073 C 55.731 200.544,56.083 202.652,57.388 205.412 C 58.092 206.900,58.562 209.001,59.007 212.654 C 59.784 219.038,60.107 220.251,61.384 221.584 C 62.092 222.322,62.655 223.723,63.249 226.221 C 63.837 228.694,64.469 230.273,65.294 231.332 C 66.099 232.364,66.771 234.010,67.353 236.379 C 67.843 238.369,68.684 240.568,69.293 241.447 C 69.884 242.301,70.665 244.170,71.029 245.600 C 71.825 248.729,72.395 249.893,73.749 251.157 C 74.313 251.684,75.067 252.996,75.424 254.073 C 75.822 255.269,76.523 256.363,77.227 256.883 C 78.001 257.455,78.646 258.536,79.190 260.168 C 79.751 261.850,80.482 263.053,81.562 264.068 C 82.420 264.876,83.242 266.081,83.388 266.746 C 83.534 267.411,84.246 268.731,84.971 269.680 C 85.695 270.629,86.748 272.304,87.311 273.402 C 87.875 274.501,88.959 275.980,89.721 276.688 C 90.549 277.459,91.209 278.524,91.362 279.336 C 91.610 280.658,93.043 282.537,97.818 287.800 C 102.287 292.726,103.694 294.251,105.566 296.200 C 106.623 297.300,107.616 298.607,107.772 299.104 C 107.929 299.602,108.571 300.275,109.200 300.600 C 109.829 300.925,110.744 301.903,111.233 302.772 C 111.724 303.647,112.638 304.567,113.278 304.833 C 113.972 305.120,114.661 305.851,114.998 306.658 C 115.311 307.406,116.181 308.370,116.956 308.827 C 117.723 309.279,118.709 310.257,119.147 311.000 C 119.585 311.743,120.524 312.650,121.233 313.017 C 121.942 313.384,122.944 314.185,123.460 314.798 C 123.976 315.411,124.848 316.026,125.399 316.164 C 125.965 316.306,126.833 317.101,127.398 317.997 C 127.948 318.868,128.893 319.888,129.499 320.264 C 130.104 320.641,131.337 321.680,132.237 322.574 C 136.044 326.355,138.278 328.172,140.210 329.056 C 141.339 329.573,142.496 330.432,142.781 330.965 C 143.071 331.507,144.148 332.287,145.218 332.732 C 146.272 333.170,147.433 333.983,147.797 334.539 C 148.161 335.095,149.546 336.115,150.875 336.807 C 152.204 337.499,153.890 338.663,154.622 339.395 C 155.354 340.127,156.478 340.841,157.120 340.982 C 157.762 341.123,158.808 341.787,159.444 342.456 C 160.080 343.126,161.320 344.040,162.200 344.489 C 163.080 344.938,164.374 345.891,165.075 346.606 C 165.944 347.495,167.024 348.066,168.475 348.407 C 171.085 349.020,171.883 349.422,173.300 350.838 C 173.908 351.447,175.419 352.324,176.656 352.787 C 177.893 353.249,179.390 354.147,179.983 354.781 C 180.706 355.556,182.033 356.228,184.030 356.831 C 185.663 357.324,187.540 358.124,188.200 358.609 C 192.216 361.557,207.982 361.688,211.000 358.798 C 211.864 357.971,213.031 357.461,215.164 356.978 C 217.540 356.440,218.431 356.016,219.656 354.838 C 220.550 353.979,221.913 353.175,222.942 352.900 C 223.909 352.642,225.556 351.776,226.603 350.977 C 227.650 350.178,229.494 349.198,230.700 348.800 C 231.906 348.402,233.367 347.565,233.947 346.938 C 234.527 346.312,236.125 345.273,237.497 344.628 C 238.869 343.984,240.096 343.127,240.224 342.724 C 240.471 341.946,242.348 340.800,243.376 340.800 C 243.714 340.800,244.979 339.906,246.185 338.814 C 247.391 337.721,249.058 336.476,249.889 336.047 C 250.720 335.618,251.629 334.887,251.909 334.424 C 252.189 333.961,253.389 333.153,254.576 332.628 C 255.762 332.103,257.039 331.207,257.413 330.637 C 257.786 330.067,258.440 329.600,258.866 329.600 C 260.073 329.600,261.838 328.539,264.221 326.381 C 265.424 325.292,266.584 324.400,266.799 324.400 C 267.014 324.400,267.636 323.694,268.180 322.831 C 268.725 321.969,269.725 320.935,270.403 320.535 C 271.080 320.134,271.981 319.220,272.404 318.503 C 272.827 317.786,273.812 316.895,274.592 316.523 C 275.373 316.151,276.365 315.248,276.796 314.517 C 277.227 313.786,278.028 313.017,278.575 312.809 C 279.123 312.601,280.021 311.717,280.573 310.843 C 281.124 309.970,282.069 309.018,282.673 308.728 C 283.276 308.438,284.193 307.570,284.710 306.800 C 285.227 306.030,286.266 305.082,287.018 304.694 C 287.770 304.306,288.663 303.452,289.002 302.796 C 289.349 302.126,290.235 301.345,291.024 301.016 C 291.981 300.616,292.616 299.981,293.016 299.024 C 293.346 298.234,294.126 297.349,294.797 297.001 C 295.455 296.662,296.361 295.660,296.812 294.776 C 297.263 293.891,298.090 292.959,298.650 292.705 C 299.219 292.445,300.100 291.387,300.650 290.302 C 301.190 289.235,301.893 288.262,302.212 288.140 C 302.531 288.018,303.451 286.811,304.256 285.459 C 305.061 284.106,306.301 282.370,307.013 281.600 C 307.724 280.830,308.528 279.505,308.799 278.655 C 309.103 277.701,309.721 276.864,310.415 276.465 C 311.103 276.071,311.978 274.894,312.669 273.432 C 313.291 272.119,314.208 270.554,314.707 269.956 C 315.206 269.357,316.050 267.883,316.582 266.679 C 317.116 265.472,318.078 264.114,318.726 263.653 C 320.065 262.699,321.200 260.577,321.200 259.026 C 321.200 258.246,321.564 257.758,322.603 257.145 C 323.453 256.643,324.097 255.901,324.239 255.259 C 324.810 252.665,325.384 251.398,326.601 250.048 C 327.517 249.031,328.171 247.646,328.794 245.400 C 329.411 243.176,330.032 241.854,330.829 241.064 C 331.708 240.194,332.139 239.172,332.671 236.697 C 333.073 234.826,333.727 233.030,334.223 232.432 C 335.617 230.755,335.967 229.843,336.796 225.719 C 337.229 223.563,338.122 220.720,338.781 219.400 C 339.627 217.703,340.219 215.536,340.800 212.003 C 341.393 208.399,341.888 206.605,342.575 205.566 C 343.994 203.421,344.368 201.627,344.815 194.800 C 345.278 187.717,345.920 182.388,346.380 181.802 C 348.177 179.512,348.366 174.056,348.386 123.773 C 348.406 76.273,348.348 74.337,346.849 72.457 C 345.684 70.994,344.951 69.256,344.418 66.687 C 344.070 65.012,343.616 64.167,342.482 63.086 C 341.667 62.308,340.581 61.116,340.070 60.436 C 339.558 59.756,338.897 59.200,338.600 59.200 C 338.304 59.200,337.546 58.684,336.916 58.054 C 335.472 56.611,334.023 55.860,330.995 54.987 C 329.678 54.607,328.096 53.941,327.480 53.507 C 325.973 52.445,322.981 51.697,319.051 51.402 C 313.677 50.999,310.300 50.350,308.395 49.357 C 305.986 48.101,303.599 47.691,295.667 47.172 C 292.000 46.932,288.010 46.459,286.800 46.121 C 278.971 43.932,274.520 43.356,262.800 43.012 C 254.732 42.776,249.486 42.239,247.553 41.453 C 242.610 39.443,192.036 38.331,164.200 39.621 M229.600 40.445 C 232.790 40.669,237.380 41.205,239.800 41.637 C 242.220 42.068,245.730 42.686,247.600 43.009 C 249.529 43.343,253.518 43.598,256.820 43.598 C 265.148 43.601,272.698 44.291,277.167 45.460 C 281.039 46.472,283.634 46.847,292.000 47.599 C 298.929 48.223,302.153 48.763,305.115 49.796 C 308.344 50.921,311.246 51.471,316.719 51.992 C 322.720 52.564,332.285 55.805,335.947 58.508 C 339.396 61.054,343.600 65.716,343.600 66.995 C 343.600 67.882,344.091 69.319,346.542 75.600 L 347.400 77.800 347.400 123.600 C 347.400 157.378,347.275 170.030,346.924 171.800 C 345.539 178.791,344.812 184.060,344.415 190.000 C 343.864 198.237,343.415 200.880,342.142 203.353 C 341.541 204.521,340.835 207.066,340.386 209.683 C 339.507 214.803,339.416 215.132,338.118 217.911 C 337.576 219.072,336.784 221.722,336.360 223.801 C 335.450 228.255,335.198 228.978,333.884 230.914 C 333.338 231.718,332.581 233.644,332.201 235.194 C 331.822 236.744,330.994 238.775,330.362 239.706 C 329.730 240.638,328.744 242.836,328.171 244.590 C 327.505 246.630,326.652 248.310,325.806 249.246 C 325.058 250.074,324.210 251.647,323.856 252.866 C 323.476 254.175,322.749 255.482,322.008 256.192 C 321.337 256.835,320.601 258.054,320.373 258.899 C 320.137 259.776,319.109 261.375,317.980 262.622 C 316.891 263.825,316.000 265.146,316.000 265.559 C 316.000 265.972,315.390 267.197,314.644 268.281 C 313.898 269.365,312.833 271.141,312.277 272.226 C 311.721 273.312,310.531 274.980,309.633 275.934 C 308.735 276.887,308.000 277.926,308.000 278.242 C 308.000 278.559,307.319 279.579,306.487 280.509 C 305.655 281.439,304.301 283.190,303.477 284.400 C 300.144 289.297,297.865 292.086,291.600 298.934 C 290.027 300.654,285.931 304.400,285.625 304.400 C 285.434 304.400,284.905 305.034,284.448 305.808 C 283.991 306.583,282.994 307.584,282.233 308.033 C 281.472 308.482,280.497 309.447,280.066 310.178 C 279.635 310.908,278.748 311.822,278.095 312.207 C 277.443 312.593,276.603 313.425,276.230 314.056 C 275.857 314.688,275.006 315.487,274.337 315.832 C 273.669 316.178,271.745 317.823,270.061 319.489 C 264.863 324.631,260.436 328.329,259.136 328.614 C 258.459 328.763,257.341 329.426,256.652 330.088 C 255.963 330.749,254.483 331.698,253.362 332.196 C 252.241 332.694,251.216 333.381,251.085 333.724 C 250.953 334.066,249.800 335.007,248.523 335.815 C 247.245 336.623,245.660 337.796,245.000 338.422 C 244.340 339.047,243.118 339.844,242.284 340.192 C 241.450 340.540,240.190 341.378,239.484 342.055 C 238.778 342.732,236.985 343.899,235.500 344.648 C 234.015 345.397,232.800 346.149,232.800 346.319 C 232.800 346.784,230.785 347.880,228.571 348.619 C 227.487 348.981,226.060 349.786,225.400 350.409 C 224.740 351.031,223.276 351.889,222.146 352.314 C 221.017 352.740,219.397 353.636,218.546 354.306 C 217.646 355.015,215.580 355.952,213.600 356.550 C 211.730 357.115,209.551 358.042,208.759 358.610 C 205.821 360.718,195.824 360.696,191.400 358.573 C 190.300 358.045,187.958 357.166,186.195 356.619 C 184.432 356.072,182.362 355.153,181.595 354.577 C 180.828 354.000,179.130 353.003,177.822 352.361 C 176.514 351.719,175.074 350.855,174.622 350.442 C 173.655 349.557,171.200 348.302,169.127 347.632 C 168.317 347.370,166.967 346.608,166.127 345.938 C 165.287 345.268,163.790 344.307,162.800 343.803 C 161.810 343.299,160.640 342.488,160.200 342.000 C 159.760 341.512,158.590 340.702,157.600 340.200 C 156.610 339.698,155.440 338.887,155.000 338.399 C 154.560 337.912,153.210 337.010,152.000 336.396 C 150.790 335.782,149.350 334.794,148.800 334.200 C 148.250 333.607,146.963 332.695,145.939 332.174 C 144.916 331.653,143.746 330.805,143.339 330.291 C 142.933 329.776,141.661 328.845,140.514 328.222 C 139.367 327.598,136.867 325.575,134.958 323.725 C 133.049 321.875,130.971 320.095,130.341 319.770 C 129.711 319.444,128.748 318.467,128.200 317.600 C 127.652 316.733,126.629 315.725,125.927 315.362 C 123.723 314.222,108.001 298.758,107.999 297.729 C 107.999 297.548,106.289 295.623,104.199 293.451 C 102.110 291.278,100.400 289.354,100.400 289.174 C 100.400 288.994,99.635 288.061,98.700 287.100 C 96.121 284.449,93.117 280.543,92.000 278.389 C 91.450 277.328,90.518 276.017,89.929 275.476 C 89.340 274.935,88.309 273.404,87.638 272.075 C 86.967 270.746,86.229 269.542,85.999 269.399 C 85.769 269.257,84.973 267.939,84.231 266.470 C 83.489 265.002,82.424 263.406,81.866 262.925 C 81.307 262.443,80.524 261.115,80.125 259.974 C 79.726 258.832,78.800 257.246,78.067 256.449 C 77.334 255.652,76.209 253.920,75.567 252.600 C 74.926 251.280,73.959 249.602,73.420 248.870 C 72.881 248.139,72.162 246.519,71.824 245.270 C 71.485 244.022,70.658 241.920,69.985 240.600 C 69.313 239.280,68.410 236.778,67.979 235.039 C 67.545 233.290,66.657 231.066,65.989 230.058 C 65.326 229.057,64.586 227.510,64.344 226.619 C 63.304 222.785,62.257 219.845,61.358 218.237 C 60.672 217.008,60.154 214.919,59.555 210.957 C 59.081 207.823,58.308 204.427,57.781 203.168 C 56.570 200.275,56.115 197.319,55.598 189.000 C 55.191 182.449,54.915 180.432,53.351 172.600 C 52.688 169.279,52.627 165.557,52.564 124.600 C 52.489 76.457,52.463 77.130,54.588 72.652 C 55.386 70.971,56.148 68.666,56.283 67.529 C 56.467 65.978,56.848 65.103,57.808 64.030 C 58.511 63.244,59.302 61.939,59.564 61.132 C 59.918 60.041,60.367 59.550,61.309 59.222 C 62.007 58.979,63.061 58.317,63.652 57.750 C 64.409 57.025,65.551 56.564,67.520 56.189 C 69.070 55.894,71.553 55.007,73.096 54.199 C 75.189 53.103,76.662 52.649,79.039 52.368 C 92.057 50.828,93.086 50.660,95.194 49.728 C 96.981 48.938,98.905 48.615,105.594 47.980 C 115.636 47.026,116.299 46.925,119.800 45.796 C 122.455 44.940,128.705 44.107,130.743 44.337 C 132.383 44.523,147.627 43.182,150.778 42.575 C 164.634 39.906,205.942 38.790,229.600 40.445 M196.600 93.996 C 195.060 94.181,192.630 94.607,191.200 94.942 C 189.770 95.278,187.082 95.756,185.227 96.005 C 181.901 96.452,180.311 97.083,177.640 99.017 C 176.891 99.559,175.614 100.181,174.801 100.400 C 173.315 100.800,168.236 104.207,165.569 106.593 C 164.782 107.297,163.549 108.217,162.830 108.637 C 161.639 109.331,159.829 111.700,156.629 116.751 C 155.984 117.768,154.872 119.500,154.157 120.600 C 153.441 121.700,152.465 123.950,151.988 125.600 C 151.511 127.250,150.852 128.902,150.525 129.271 C 150.197 129.640,149.773 130.540,149.582 131.271 C 149.391 132.002,148.930 133.770,148.558 135.200 C 147.596 138.899,147.563 145.332,148.502 146.272 C 149.680 147.453,170.069 147.415,171.146 146.231 C 172.324 144.934,174.621 140.030,175.188 137.600 C 175.892 134.587,176.513 133.193,177.729 131.899 C 178.298 131.294,179.053 130.187,179.408 129.440 C 180.267 127.630,183.494 124.961,186.096 123.907 C 187.253 123.438,188.683 122.724,189.274 122.319 C 193.458 119.451,205.944 119.114,210.000 121.760 C 210.770 122.262,212.450 123.065,213.734 123.543 C 216.402 124.539,219.719 127.205,220.603 129.064 C 220.933 129.760,221.811 131.055,222.552 131.943 C 223.503 133.081,224.163 134.536,224.789 136.878 C 225.278 138.705,226.041 140.794,226.485 141.521 C 228.076 144.127,227.989 149.091,226.295 152.325 C 225.514 153.815,224.664 155.837,224.405 156.817 C 224.130 157.858,223.316 159.266,222.446 160.200 C 221.628 161.080,220.721 162.278,220.431 162.863 C 220.142 163.447,219.315 164.243,218.594 164.631 C 217.873 165.020,216.999 165.931,216.653 166.657 C 216.307 167.383,215.410 168.379,214.660 168.871 C 213.909 169.363,212.970 170.250,212.572 170.841 C 212.175 171.432,211.352 172.210,210.744 172.569 C 210.136 172.929,209.234 173.802,208.739 174.511 C 208.245 175.220,207.586 175.955,207.275 176.145 C 205.698 177.108,198.109 185.454,196.412 188.092 C 195.807 189.031,194.814 190.250,194.205 190.800 C 193.596 191.350,192.569 192.970,191.922 194.400 C 191.276 195.830,190.407 197.362,189.992 197.805 C 188.037 199.894,186.222 209.322,187.354 211.512 C 188.169 213.087,189.869 213.785,191.426 213.183 C 193.432 212.408,202.607 211.967,206.486 212.459 L 209.972 212.901 211.988 211.608 C 213.859 210.407,214.065 210.111,214.870 207.460 C 215.423 205.640,216.204 204.096,217.023 203.202 C 220.205 199.734,224.049 196.024,226.558 194.000 C 228.059 192.790,229.891 191.170,230.629 190.400 C 232.321 188.636,232.382 188.576,236.024 185.093 C 237.687 183.502,239.446 181.544,239.931 180.741 C 240.417 179.939,241.216 179.016,241.707 178.689 C 242.198 178.363,243.217 177.039,243.972 175.748 C 244.726 174.456,245.834 172.860,246.434 172.200 C 247.050 171.522,247.827 169.905,248.220 168.481 C 248.603 167.095,249.459 165.143,250.122 164.141 C 252.810 160.083,252.515 132.904,249.737 128.652 C 249.180 127.801,248.365 126.001,247.926 124.652 C 247.486 123.303,246.709 121.649,246.200 120.975 C 245.690 120.301,244.997 119.089,244.660 118.283 C 244.324 117.477,243.254 115.958,242.284 114.908 C 241.314 113.859,240.052 112.190,239.480 111.200 C 238.877 110.157,237.833 109.074,236.998 108.625 C 236.206 108.200,235.262 107.351,234.901 106.740 C 234.540 106.129,233.154 105.053,231.822 104.350 C 230.490 103.647,228.817 102.568,228.105 101.953 C 227.393 101.337,226.115 100.646,225.266 100.418 C 224.416 100.189,223.109 99.552,222.360 99.002 C 219.894 97.190,217.856 96.473,213.271 95.804 C 210.779 95.441,208.020 94.889,207.139 94.579 C 205.056 93.844,200.134 93.572,196.600 93.996 M212.400 96.569 C 215.150 96.907,217.524 97.187,217.676 97.191 C 217.827 97.196,218.777 97.914,219.785 98.787 C 221.447 100.226,222.326 100.610,225.651 101.355 C 226.229 101.485,227.002 102.048,227.369 102.608 C 227.735 103.168,228.985 104.046,230.145 104.559 C 231.313 105.075,233.015 106.303,233.959 107.311 C 234.897 108.311,236.147 109.330,236.738 109.574 C 237.378 109.840,238.210 110.782,238.798 111.909 C 239.341 112.949,240.628 114.624,241.658 115.631 C 242.852 116.797,243.687 118.038,243.959 119.048 C 244.194 119.921,244.730 121.004,245.151 121.455 C 246.184 122.564,247.021 124.246,247.588 126.354 C 247.847 127.318,248.514 128.793,249.068 129.631 C 250.638 132.004,251.196 136.939,251.187 148.400 C 251.180 159.069,250.940 160.899,249.204 163.520 C 248.570 164.476,247.783 166.439,247.454 167.882 C 247.039 169.701,246.493 170.887,245.672 171.752 C 245.022 172.439,244.197 173.581,243.839 174.291 C 243.481 175.002,242.201 176.689,240.994 178.042 C 239.787 179.394,238.800 180.720,238.800 180.988 C 238.800 181.256,237.912 182.224,236.826 183.139 C 235.741 184.054,234.739 185.162,234.600 185.601 C 234.461 186.039,233.926 186.504,233.411 186.633 C 232.325 186.906,231.001 188.240,230.644 189.421 C 230.508 189.873,229.632 190.639,228.698 191.124 C 227.199 191.902,222.452 195.653,220.800 197.365 C 220.470 197.707,218.984 199.232,217.498 200.754 C 215.653 202.644,214.713 203.947,214.535 204.861 C 214.206 206.553,212.157 210.245,211.158 210.945 C 210.572 211.355,208.831 211.434,203.500 211.290 C 198.151 211.145,195.836 211.251,193.200 211.757 L 189.800 212.411 188.744 211.249 C 187.833 210.245,187.713 209.821,187.868 208.143 C 188.243 204.068,189.239 200.399,190.270 199.288 C 191.530 197.931,192.189 196.674,192.768 194.520 C 193.060 193.436,193.642 192.540,194.409 191.994 C 195.063 191.528,196.169 190.304,196.867 189.273 C 197.565 188.243,198.753 186.705,199.507 185.856 C 200.261 185.007,201.133 183.702,201.444 182.956 C 201.756 182.210,202.254 181.600,202.551 181.600 C 203.380 181.600,205.216 180.010,205.623 178.940 C 205.822 178.415,206.410 177.824,206.928 177.627 C 207.447 177.430,208.343 176.668,208.921 175.934 C 209.498 175.200,210.264 174.330,210.623 174.000 C 210.981 173.670,212.023 172.663,212.937 171.762 C 213.852 170.861,215.022 169.900,215.538 169.627 C 216.053 169.355,216.821 168.351,217.243 167.396 C 217.842 166.042,218.281 165.602,219.246 165.390 C 220.217 165.177,220.649 164.738,221.269 163.338 C 221.702 162.358,222.481 161.364,223.001 161.127 C 223.521 160.890,224.119 160.225,224.330 159.648 C 224.541 159.072,225.012 157.761,225.376 156.735 C 225.741 155.710,226.309 154.767,226.638 154.641 C 229.073 153.706,229.167 141.530,226.759 138.959 C 226.326 138.496,225.597 136.740,225.139 135.056 C 224.602 133.082,223.961 131.675,223.334 131.097 C 222.799 130.604,221.934 129.379,221.412 128.375 C 220.034 125.726,217.664 123.755,214.917 122.973 C 213.596 122.597,212.079 121.818,211.387 121.163 C 208.248 118.184,189.454 118.677,188.267 121.769 C 188.141 122.097,187.034 122.659,185.806 123.015 C 183.245 123.760,180.226 126.113,178.980 128.337 C 178.528 129.141,177.616 130.340,176.952 131.000 C 176.087 131.860,175.548 132.994,175.052 135.000 C 174.158 138.616,170.689 145.832,169.724 146.082 C 169.326 146.186,167.650 146.098,166.000 145.886 C 162.645 145.456,163.108 145.462,155.270 145.745 L 149.539 145.952 148.970 144.589 C 147.918 142.072,148.821 134.353,150.373 132.600 C 151.422 131.414,151.483 131.262,152.598 126.968 C 153.384 123.945,153.910 122.718,154.827 121.772 C 155.487 121.091,156.215 119.855,156.444 119.025 C 156.673 118.195,157.540 116.770,158.369 115.858 C 159.199 114.946,160.368 113.352,160.968 112.315 C 161.688 111.070,162.897 109.860,164.529 108.750 C 165.888 107.825,167.240 106.731,167.534 106.319 C 167.827 105.906,169.046 105.016,170.243 104.341 C 171.439 103.666,172.597 102.779,172.816 102.370 C 173.035 101.962,173.976 101.433,174.907 101.195 C 177.925 100.424,178.977 99.904,180.280 98.540 C 180.983 97.803,181.747 97.200,181.978 97.200 C 182.208 97.200,184.962 96.930,188.098 96.600 C 198.448 95.512,203.744 95.505,212.400 96.569 M229.400 122.000 C 229.074 122.528,229.552 123.277,230.028 122.983 C 230.513 122.683,230.510 121.600,230.024 121.600 C 229.817 121.600,229.536 121.780,229.400 122.000 M196.800 247.873 C 194.710 248.196,192.082 248.896,190.960 249.430 C 189.838 249.963,188.754 250.400,188.551 250.400 C 187.992 250.400,185.200 252.798,185.200 253.278 C 185.200 253.510,184.393 255.027,183.408 256.651 C 180.681 261.143,180.272 262.774,180.471 268.370 L 180.641 273.121 183.327 277.061 C 186.418 281.594,188.229 283.089,192.200 284.387 C 193.740 284.890,195.710 285.660,196.578 286.099 C 198.598 287.119,201.458 286.878,204.116 285.465 C 205.163 284.908,206.999 284.234,208.196 283.966 C 210.470 283.457,216.000 278.845,216.000 277.457 C 216.000 277.137,216.615 276.140,217.366 275.240 C 222.097 269.578,219.982 258.556,212.839 251.648 C 209.926 248.831,209.608 248.675,205.000 247.804 C 201.323 247.110,201.764 247.106,196.800 247.873 M207.740 249.241 C 209.643 249.749,214.154 254.098,215.789 257.000 C 216.408 258.100,217.361 259.670,217.905 260.489 C 219.972 263.602,219.207 271.130,216.478 274.521 C 215.805 275.357,215.136 276.580,214.992 277.238 C 214.815 278.043,214.211 278.762,213.149 279.432 C 212.280 279.981,211.366 280.877,211.116 281.424 C 210.867 281.971,210.289 282.502,209.831 282.603 C 204.581 283.761,203.408 284.089,202.675 284.603 C 201.601 285.355,198.517 285.353,197.200 284.600 C 196.650 284.286,195.750 284.021,195.200 284.011 C 191.211 283.942,186.432 280.812,184.497 277.000 C 184.051 276.120,183.305 275.056,182.841 274.636 C 180.535 272.551,180.211 262.346,182.403 260.848 C 182.847 260.544,183.916 258.834,184.778 257.048 C 186.629 253.215,187.325 252.360,189.200 251.622 C 189.970 251.319,190.960 250.752,191.400 250.362 C 192.389 249.485,194.378 248.706,195.007 248.947 C 195.266 249.047,196.450 248.975,197.638 248.789 C 200.128 248.399,205.488 248.639,207.740 249.241 M301.292 302.075 C 301.539 302.817,302.400 302.940,302.400 302.233 C 302.400 301.885,302.115 301.600,301.767 301.600 C 301.418 301.600,301.205 301.814,301.292 302.075 " stroke="none" fill="#a49cd4" fill-rule="evenodd"></path></g></svg>