<svg xmlns="http://www.w3.org/2000/svg" viewBox="0 0 24 24" height="128" width="128"><path fill="currentColor" d="M7.06 7.6c-.22-1.41.2-2.83 1.16-3.9.95-1.08 2.33-1.69 3.79-1.69s2.84.62 3.79 1.69c.95 1.08 1.37 2.5 1.16 3.9l-.4 2.58c-.04.28-.12.56-.21.82h-2.31c.25-.32.43-.7.49-1.12l.4-2.58c.13-.83-.12-1.67-.68-2.3s-1.38-1-2.23-1-1.67.36-2.23 1c-.56.63-.81 1.47-.68 2.3l.4 2.58c.17 1.14 1.15 2 2.31 2.1-.46.51-.75 1.17-.78 1.9-1.82-.4-3.27-1.85-3.56-3.7l-.4-2.58ZM11 21v-1H5v-1.25c0-.33.18-.62.47-.77l3.34-1.71c.7.33 1.44.55 2.19.65v-2.03c-.07-.02-.14-.04-.21-.05-.2-.05-.4-.1-.6-.17-.11-.04-.22-.09-.32-.13a5 5 0 0 1-.5-.24c-.1-.06-.21-.12-.31-.18-.07-.04-.14-.07-.2-.12l-4.3 2.2C3.6 16.69 3 17.67 3 18.75V20c0 1.1.9 2 2 2h6.18c-.11-.31-.18-.65-.18-1m12-7v7c0 1.1-.9 2-2 2h-7c-1.1 0-2-.9-2-2v-7c0-1.1.9-2 2-2h7c1.1 0 2 .9 2 2m-.65 3.5-3.45-3.45-.85.85 2 2H13v1.2h7.05l-2 2 .85.85z"></path></svg>