<svg xmlns="http://www.w3.org/2000/svg" viewBox="0 0 24 24" height="128" width="128"><path fill="currentColor" d="M11.81 7.53c-.14.13-.32.28-.55.44-.75.52-1.21 1.35-1.17 2.26.14 3.48.41 9.86.41 10.28 0 .83-.67 1.5-1.5 1.5s-1.5-.67-1.5-1.5c0-.33.24-6.17.39-9.75.03-.82-.5-1.52-1.27-1.8q-.255-.09-.48-.24c-.31-.21-.55-.47-.67-.74-.73-1.57-.49-3.72.67-4.94l1.57 3.39c.47-.02.92-.11 1.35-.29s.81-.44 1.14-.75L8.63 2c1.73.01 3.52 1.17 4.24 2.73.46 1.01-.25 2.03-1.05 2.79ZM15 6v5h2V6l.21-.42c.19-.38.25-.81.18-1.22L17 2h-2l-.39 2.36c-.07.42 0 .85.18 1.22zm6 6h-7c-1.1 0-2 .9-2 2v7c0 1.1.9 2 2 2h7c1.1 0 2-.9 2-2v-7c0-1.1-.9-2-2-2m-5 8.65c-.06.06-.13.11-.2.15l-2.19 1.15c-.36.19-.74-.2-.56-.56l1.15-2.19c.04-.07.09-.14.15-.2l4.8-4.8 1.65 1.65zm5.75-5.75-.36.36-1.65-1.65.36-.36c.32-.32.82-.34 1.12-.05l.58.58c.29.29.27.79-.05 1.12"></path></svg>