<svg xmlns="http://www.w3.org/2000/svg" viewBox="0 0 24 24" height="128" width="128"><path fill="currentColor" d="M11 20H4c-1.1 0-2-.9-2-2V6c0-1.1.9-2 2-2h16c1.1 0 2 .9 2 2v5.18c-.31-.11-.65-.18-1-.18h-1V6H4v12h7zm-6-5.26v.49c0 .43.35.78.78.78H11v-2c0-.15.02-.29.04-.43l-.9-.46c-.46.35-1.03.56-1.64.56s-1.18-.21-1.64-.56l-1.25.64c-.37.19-.61.57-.61.99Zm3.5-2.07c.86 0 1.6-.64 1.72-1.48l.15-1c.08-.55-.08-1.1-.44-1.52s-.88-.66-1.44-.66-1.08.24-1.44.66-.52.97-.44 1.52l.15 1c.13.85.87 1.48 1.72 1.48ZM13 10h6V9h-6zm10 4v7c0 1.1-.9 2-2 2h-7c-1.1 0-2-.9-2-2v-7c0-1.1.9-2 2-2h7c1.1 0 2 .9 2 2m-4.65 7.27a.85.85 0 1 0-1.699-.001.85.85 0 0 0 1.699.001m2.25-5.84c0-1.4-1.39-2.53-3.1-2.53s-3.1 1.14-3.1 2.53v.1h1.2v-.1c0-.75.85-1.36 1.9-1.36s1.9.61 1.9 1.36c0 .44-.19.76-.59.98-1.33.74-1.91 1.21-1.91 2.6v.41h1.2v-.41c0-.71.04-.88 1.3-1.58.78-.44 1.2-1.13 1.2-2"></path></svg>